<?xml version="1.0" encoding="UTF-8"?><svg id="Layer_2" xmlns="http://www.w3.org/2000/svg" viewBox="0 0 106.05 106.09"><defs><style>.cls-1{fill:#fff;}</style></defs><g id="Layer_1-2"><path class="cls-1" d="m80.87.15c-.75.32-1.53.57-2.23.97-3.18,1.81-4.82,4.58-4.83,8.23-.03,8.68,0,17.36-.01,26.05,0,.43,0,.86,0,1.42-.42.02-.8.05-1.18.05-3.93,0-7.85,0-11.78,0-6.28,0-10.12,3.82-10.12,10.08,0,16.14,0,32.28,0,48.42,0,.46,0,.92,0,1.43H.03c0-.43,0-.81,0-1.19,0-28.6.04-57.21-.03-85.81C-.01,4.6,3.4.93,7.47.17,8.24.02,9.05,0,9.84,0,33.18,0,56.52,0,79.86,0h1.01s0,.1,0,.15Zm-46.31,20.61c7.42,0,14.84,0,22.26,0,.5,0,1.02-.02,1.49-.15.99-.26,1.63-1.15,1.64-2.16,0-1-.63-1.92-1.61-2.17-.51-.13-1.07-.15-1.6-.16-14.77,0-29.53,0-44.3,0-2.09,0-3.23.84-3.2,2.36.03,1.49,1.13,2.28,3.17,2.28,7.38,0,14.77,0,22.15,0Zm0,6.92c-7.35,0-14.69,0-22.04,0-.43,0-.87-.01-1.29.04-1.38.17-2.25,1.5-1.88,2.84.32,1.17,1.18,1.71,2.77,1.71,14.98,0,29.96,0,44.95,0,.25,0,.51.01.76-.01,1.24-.12,2.15-1.11,2.14-2.3,0-1.2-.91-2.16-2.16-2.26-.39-.03-.79-.02-1.19-.02-7.35,0-14.69,0-22.04,0Zm-6.92,27.67c5.11,0,10.23,0,15.34,0,.5,0,1.02-.02,1.49-.15.99-.26,1.63-1.15,1.64-2.16,0-1-.63-1.91-1.61-2.18-.44-.12-.92-.15-1.39-.15-10.3,0-20.6,0-30.9,0-.43,0-.87.03-1.28.13-1.03.26-1.72,1.2-1.7,2.23.02.99.69,1.89,1.67,2.14.45.11.92.14,1.39.14,5.11,0,10.23,0,15.34,0Zm-.11-11.57h0c5.4,0,10.8,0,16.2-.01,1.4,0,2.37-.99,2.38-2.27,0-1.27-.98-2.3-2.36-2.3-10.73-.02-21.46,0-32.19,0-.14,0-.29,0-.43.04-1.05.26-1.71.9-1.87,1.98-.22,1.45.89,2.56,2.6,2.56,5.22.01,10.44,0,15.66,0Zm.14,18.48c-2.95,0-5.91,0-8.86,0-2.45,0-4.9-.02-7.35.02-1.27.02-2.19.99-2.23,2.19-.05,1.23.89,2.26,2.19,2.37.36.03.72.01,1.08.01,9.43,0,18.87,0,28.3,0,.97,0,1.94,0,2.92,0,.99,0,1.74-.45,2.17-1.34.77-1.6-.39-3.23-2.34-3.24-5.29-.02-10.59,0-15.88,0Zm-.03,16.11c3.31,0,6.63,0,9.94,0,2.09,0,4.18.02,6.27-.02,1.32-.03,2.26-1.02,2.27-2.26,0-1.23-.95-2.21-2.25-2.3-.18-.01-.36,0-.54,0-10.44,0-20.89,0-31.33,0-.25,0-.51,0-.75.03-1.26.19-2.14,1.32-1.98,2.53.16,1.27,1.1,2.02,2.61,2.03,5.26.01,10.52,0,15.77,0Z"/><path class="cls-1" d="m55.37,73.77c0-8.97,0-17.94,0-26.91,0-3.64,1.71-5.35,5.35-5.35,13.33,0,26.65,0,39.98,0,3.64,0,5.35,1.71,5.35,5.35,0,17.94,0,35.88,0,53.83,0,3.63-1.72,5.35-5.35,5.35-13.33,0-26.66-.06-39.98.04-3.27.02-5.43-2.09-5.39-5.4.12-8.97.04-17.94.04-26.91Zm25.34-2.32c5.19,0,10.37,0,15.56,0,2.11,0,2.86-.76,2.86-2.87,0-5.76,0-11.53,0-17.29,0-2.11-.75-2.86-2.86-2.86-10.37,0-20.75,0-31.12,0-2.11,0-2.86.75-2.86,2.86,0,5.76,0,11.53,0,17.29,0,2.11.76,2.86,2.86,2.86,5.19,0,10.37,0,15.56,0Zm-13.74,13.84c-.79,0-1.59-.04-2.37,0-1.42.09-2.32,1.04-2.3,2.34.02,1.26.9,2.2,2.27,2.26,1.54.07,3.09.07,4.64,0,1.37-.06,2.24-1.02,2.25-2.28,0-1.31-.89-2.23-2.32-2.32-.72-.05-1.44,0-2.16,0Zm13.68,4.63c.76,0,1.51.03,2.27,0,1.44-.08,2.35-.98,2.37-2.28.01-1.31-.88-2.27-2.31-2.33-1.51-.06-3.02-.06-4.53,0-1.43.06-2.33,1.02-2.31,2.33.01,1.3.92,2.2,2.36,2.29.72.04,1.44,0,2.16,0Zm13.8,0s0,0,0,0c.79,0,1.59.04,2.37,0,1.42-.09,2.32-1.04,2.3-2.35-.02-1.26-.9-2.2-2.27-2.26-1.54-.07-3.09-.07-4.64,0-1.37.06-2.24,1.02-2.24,2.28,0,1.27.86,2.2,2.22,2.31.75.06,1.51.01,2.26.01Zm-27.56,9.18c.83,0,1.66.05,2.48-.01,1.22-.08,2.05-.99,2.08-2.19.03-1.24-.81-2.28-2.06-2.34-1.69-.08-3.38-.08-5.07,0-1.23.06-2.07,1.13-2.03,2.36.04,1.19.88,2.09,2.11,2.17.82.05,1.65,0,2.48,0Zm13.81,0c.83,0,1.66.04,2.48-.01,1.23-.08,2.06-.98,2.1-2.17.04-1.24-.8-2.29-2.04-2.35-1.69-.08-3.38-.08-5.07,0-1.24.06-2.08,1.12-2.05,2.35.03,1.2.87,2.1,2.09,2.18.82.05,1.65.01,2.48.01Zm13.83,0c.83,0,1.66.04,2.48-.01,1.23-.08,2.07-.98,2.1-2.17.04-1.24-.8-2.29-2.04-2.35-1.69-.08-3.38-.08-5.07,0-1.24.06-2.08,1.11-2.05,2.34.03,1.2.87,2.1,2.09,2.18.82.05,1.65.01,2.48.01Zm-27.68-18.42s0,0,0,0c.83,0,1.66.05,2.48-.01,1.25-.09,2.12-1.07,2.12-2.29,0-1.24-.85-2.2-2.13-2.25-1.62-.06-3.24-.06-4.85,0-1.29.04-2.15.98-2.17,2.22-.02,1.27.88,2.26,2.19,2.33.79.05,1.58,0,2.37,0Zm13.91,0c.72,0,1.44.02,2.16,0,1.41-.05,2.35-.97,2.37-2.27.01-1.33-.89-2.26-2.32-2.3-1.51-.04-3.02-.04-4.53,0-1.42.04-2.33.98-2.31,2.3.01,1.3.97,2.22,2.37,2.27.75.03,1.51,0,2.27,0Zm13.77-4.57c-.83,0-1.66-.04-2.48.01-1.22.08-2.06.99-2.09,2.18-.03,1.23.81,2.29,2.05,2.34,1.69.08,3.38.08,5.07,0,1.24-.06,2.07-1.12,2.04-2.36-.04-1.19-.87-2.09-2.1-2.17-.82-.05-1.65-.01-2.48,0Z"/><path class="cls-1" d="m92.19,18.38h-13.61c0-2.85-.28-5.68.07-8.43.43-3.32,3.82-5.59,7.22-5.34,3.38.25,6.18,3.04,6.31,6.42.09,2.41.02,4.82.02,7.34Z"/><path class="cls-1" d="m94.49,53.1v13.7h-27.53v-13.7h27.53Z"/></g></svg>