<?xml version="1.0" encoding="UTF-8"?><svg id="Layer_2" xmlns="http://www.w3.org/2000/svg" viewBox="0 0 99.22 104.7"><defs><style>.cls-1{fill:#fff;}</style></defs><g id="Layer_1-2"><path class="cls-1" d="m.02,24.91h99v1.11c0,20.43,0,40.85,0,61.28,0,4.58-2.86,7.44-7.43,7.45-1.37,0-2.74,0-4.29,0,2.81-6.56,2.86-13.04-.32-19.37-3.18-6.34-8.36-10.25-15.36-12.05,1.04-.68,1.07-1.63,1.05-2.62-.03-2.04,0-4.08-.01-6.12,0-1.51-.53-2.05-2.01-2.05-2.64,0-5.27,0-7.91,0-1.43,0-1.98.55-1.99,1.96-.01,2.21-.05,4.43.02,6.64.02.74.35,1.46.57,2.29-6.5,1.72-11.62,5.65-14.76,11.94-3.15,6.32-3.15,12.77-.26,19.37h-1.26c-12.48,0-24.96,0-37.44,0-4.78,0-7.6-2.82-7.6-7.6,0-20.32,0-40.64,0-60.96v-1.27Zm48.8,6.97c-1.33,0-2.67-.01-4,0-1.37.02-1.92.56-1.93,1.92-.02,2.32-.02,4.63,0,6.95.01,1.38.54,1.9,1.93,1.9,2.67.01,5.34,0,8,0,1.36,0,2.02-.64,2.03-1.97.02-2.28.02-4.56,0-6.85-.01-1.37-.63-1.95-2.03-1.96-1.33-.01-2.67,0-4,0Zm34.37,10.79c1.4,0,2.81.02,4.21,0,1.1-.02,1.8-.66,1.82-1.76.04-2.42.04-4.84,0-7.27-.02-1.12-.68-1.73-1.82-1.74-2.81-.02-5.62-.02-8.43,0-1.12.01-1.69.59-1.7,1.71-.03,2.46-.03,4.92,0,7.37.01,1.13.58,1.67,1.71,1.69,1.4.02,2.81,0,4.21,0ZM15.95,84.09c1.33,0,2.67.02,4,0,1.36-.02,1.99-.66,2-2.02.01-2.25.01-4.49,0-6.74,0-1.35-.65-2.03-1.99-2.04-2.67-.03-5.34-.02-8,0-1.34.01-1.95.62-1.97,1.94-.02,2.32-.02,4.63,0,6.95.01,1.32.61,1.89,1.96,1.91,1.33.02,2.67,0,4,0Zm-.75-31.55c-1.41,0-2.81-.01-4.22,0-1.22.02-1.78.5-1.81,1.7-.04,2.42-.04,4.85,0,7.27.02,1.2.66,1.8,1.87,1.8,2.74.02,5.48.02,8.22,0,1.21,0,1.84-.62,1.85-1.81.02-2.42.02-4.85,0-7.27-.01-1.13-.57-1.67-1.7-1.69-1.4-.02-2.81,0-4.22,0Zm34.4,0c-1.41,0-2.81-.01-4.22,0-1.26.01-1.82.53-1.84,1.78-.03,2.39-.03,4.78,0,7.17.02,1.2.65,1.82,1.85,1.83,2.74.02,5.48.02,8.22,0,1.26,0,1.88-.63,1.89-1.89.02-2.35.02-4.71,0-7.06-.01-1.3-.56-1.82-1.89-1.83-1.33-.01-2.67,0-4.01,0Zm34.4,0c-1.37,0-2.74-.01-4.11,0-1.21.02-1.78.54-1.79,1.71-.02,2.43-.02,4.85,0,7.28.01,1.14.63,1.77,1.77,1.78,2.78.03,5.56.03,8.33,0,1.1,0,1.81-.67,1.83-1.77.04-2.43.04-4.85,0-7.28-.02-1.16-.65-1.71-1.81-1.73-1.41-.02-2.81,0-4.22,0Zm-51.56,0c-1.37,0-2.74,0-4.11,0-1.37.01-1.94.56-1.95,1.89-.01,2.32-.01,4.63,0,6.95,0,1.34.59,1.93,1.92,1.94,2.7.02,5.4.02,8.11,0,1.27,0,1.87-.6,1.89-1.88.03-2.35.03-4.7,0-7.05-.02-1.35-.52-1.83-1.86-1.85-1.33-.01-2.67,0-4,0Zm33.61-9.86c1.37,0,2.74.01,4.11,0,1.19-.02,1.84-.64,1.85-1.81.02-2.39.02-4.77,0-7.16-.01-1.2-.62-1.8-1.83-1.81-2.74-.02-5.47-.02-8.21,0-1.22,0-1.84.59-1.85,1.79-.03,2.39-.03,4.77,0,7.16.01,1.19.65,1.81,1.83,1.82,1.37.02,2.74,0,4.11,0Zm-32.84,41.42c1.33,0,2.67.02,4,0,1.31-.02,1.89-.57,1.9-1.84.02-2.39.02-4.77,0-7.16-.01-1.16-.59-1.78-1.75-1.8-2.77-.04-5.54-.04-8.31,0-1.17.01-1.82.7-1.83,1.86-.02,2.35-.02,4.7,0,7.05.01,1.23.64,1.86,1.89,1.88,1.37.03,2.74,0,4.1,0Z"/><path class="cls-1" d="m.04,21.48c0-3.34-.1-6.61.03-9.87.13-3.07,2.69-5.78,5.75-6.09,1.97-.2,3.99-.04,6.15-.04,0,1.04,0,2.11,0,3.19,0,1.34-.04,2.67.03,4.01.14,2.75,2.26,4.7,4.99,4.64,2.66-.05,4.72-2.09,4.76-4.78.04-2.35,0-4.7,0-7.12h22.95c0,2.08,0,4.1,0,6.13,0,.67-.02,1.35.11,1.99.51,2.4,2.75,3.98,5.25,3.76,2.44-.22,4.33-2.14,4.39-4.59.06-2.39.01-4.78.01-7.26h22.9c.02.3.06.64.06.97,0,2-.02,4.01.01,6.01.04,2.77,2.07,4.83,4.77,4.88,2.77.06,4.9-1.92,5-4.75.07-1.97.02-3.94.03-5.91,0-.38,0-.76,0-1.35,2.63.2,5.21-.42,7.67.6,2.52,1.04,4.07,3,4.22,5.7.19,3.25.04,6.53.04,9.87H.04Z"/><path class="cls-1" d="m66.7,104.7c-10.66-.04-19.25-8.72-19.21-19.41.03-10.61,8.8-19.26,19.45-19.2,10.61.06,19.23,8.83,19.17,19.49-.07,10.58-8.77,19.17-19.4,19.12Zm-4.03-14.82c-1.28-1.31-2.44-2.52-3.63-3.72-.9-.9-1.86-.97-2.57-.22-.71.74-.63,1.59.27,2.49,1.46,1.48,2.93,2.94,4.4,4.4,1.26,1.25,1.9,1.25,3.18-.03,4.13-4.12,8.25-8.25,12.38-12.38.22-.22.46-.45.63-.71.45-.72.36-1.42-.24-2.01-.6-.59-1.31-.66-2.01-.18-.31.22-.58.51-.85.78-3.8,3.8-7.6,7.61-11.54,11.56Z"/><path class="cls-1" d="m51.26,7.02c0,1.68.02,3.37,0,5.05-.01,1.25-.66,1.96-1.71,1.94-1.02-.02-1.58-.67-1.58-1.94-.01-3.4-.02-6.81,0-10.21,0-1.25.58-1.87,1.64-1.87,1.06,0,1.63.61,1.65,1.86.02,1.72,0,3.44,0,5.16Z"/><path class="cls-1" d="m83.98,7.06c0,1.69.01,3.37,0,5.06-.01,1.25-.56,1.89-1.61,1.91-1.06.02-1.66-.59-1.67-1.84-.02-3.44-.02-6.89,0-10.33,0-1.26.59-1.86,1.66-1.85,1.06.01,1.61.63,1.62,1.89.02,1.72,0,3.44,0,5.16Z"/><path class="cls-1" d="m15.23,7c0-1.68,0-3.37,0-5.05,0-1.29.52-1.91,1.57-1.94,1.11-.04,1.71.58,1.72,1.9.02,3.4.02,6.81,0,10.21,0,1.26-.68,1.95-1.74,1.91-1.01-.04-1.53-.69-1.54-1.97-.01-1.68,0-3.37,0-5.05Z"/><path class="cls-1" d="m64.23,55.99h5.29v4.14h-5.29v-4.14Z"/><path class="cls-1" d="m46.23,39.37v-4.12h5.23v4.12h-5.23Z"/><path class="cls-1" d="m18.59,76.66v4.12h-5.23v-4.12h5.23Z"/><path class="cls-1" d="m12.53,56h5.26v4.15h-5.26v-4.15Z"/><path class="cls-1" d="m52.31,60.14h-5.24v-4.29h5.24v4.29Z"/><path class="cls-1" d="m81.41,60.13v-4.3h5.25v4.3h-5.25Z"/><path class="cls-1" d="m35,56.02v4.09h-5.29v-4.09h5.29Z"/><path class="cls-1" d="m63.4,35.22h5.28v4.14h-5.28v-4.14Z"/><path class="cls-1" d="m80.6,35.22h5.28v4.14h-5.28v-4.14Z"/><path class="cls-1" d="m30.52,76.62h5.27v4.13h-5.27v-4.13Z"/></g></svg>