<?xml version="1.0" encoding="UTF-8"?><svg id="Layer_2" xmlns="http://www.w3.org/2000/svg" viewBox="0 0 111.52 94.45"><defs><style>.cls-1{fill:#fff;}</style></defs><g id="Layer_1-2"><path class="cls-1" d="m111.52,18.26c-.54,1.67-1.72,2.88-2.93,4.09-17.57,17.54-35.12,35.09-52.66,52.66-1.5,1.5-3.16,2.57-5.31,2.03-1.1-.28-2.28-.87-3.08-1.66-9.54-9.45-19.04-18.95-28.51-28.46-2.44-2.45-2.39-5.54.04-8.01,2.29-2.33,4.6-4.64,6.93-6.93,2.57-2.52,5.6-2.51,8.17.05,5.48,5.46,10.94,10.93,16.4,16.4.28.28.5.62.81,1.02.45-.43.76-.71,1.05-1,13.99-13.98,27.98-27.96,41.96-41.97,1.5-1.51,3.19-2.52,5.33-1.95,1.07.29,2.16.9,2.97,1.65,2.42,2.25,4.75,4.59,7.01,7,.77.82,1.23,1.92,1.83,2.89v2.18Z"/><path class="cls-1" d="m47.35,0C56.35,0,65.36,0,74.36,0c2.82,0,5.56.4,8.18,1.52,1.86.8,2.21,2.43.8,3.88-.93.96-1.9,1.9-2.85,2.85-.72.72-1.51.97-2.57.73-1.12-.25-2.3-.35-3.45-.35-18.15-.02-36.29,0-54.44-.03-4.75,0-8.21,1.99-10.41,6.18-.85,1.61-1.04,3.39-1.04,5.17-.01,18.18,0,36.36,0,54.55,0,4.67,1.98,8.23,6.21,10.25,1.45.69,3.21,1.01,4.83,1.02,18.4.07,36.8.07,55.2.03,6.53-.02,11-4.62,11.01-11.19.02-5.19.03-10.38-.02-15.57-.01-1.3.38-2.3,1.34-3.17,1.15-1.05,2.22-2.19,3.32-3.3.75-.75,1.58-1.13,2.64-.7,1.03.42,1.32,1.26,1.31,2.28-.03,7.44.08,14.88-.11,22.32-.22,8.88-7.89,16.9-16.75,17.79-1.01.1-2.03.18-3.04.18-18.22.01-36.44,0-54.66,0-7.67,0-13.42-3.38-17.39-9.87-1.58-2.59-2.34-5.47-2.42-8.48-.08-2.83-.04-5.66-.04-8.49,0-15.97-.02-31.94,0-47.91C.03,11.27,4.1,5.33,11.55,1.63,14.17.33,17.03,0,19.92,0c9.15,0,18.29,0,27.44,0Z"/></g></svg>