<?xml version="1.0" encoding="UTF-8"?><svg id="Layer_2" xmlns="http://www.w3.org/2000/svg" viewBox="0 0 86.35 86.3"><defs><style>.cls-1{fill:#fff;}</style></defs><g id="Layer_1-2"><path class="cls-1" d="m79.95,86.3h-1.01c-.13-.04-.26-.11-.39-.13-2.41-.29-4.16-1.55-5.31-3.67-.84-1.54-.83-3.24-.86-4.92-.08-5.05-.8-10.02-2.09-14.89-2.68-10.11-7.5-19.08-14.47-26.88-7.32-8.2-16.16-14.2-26.49-17.97-7.02-2.56-14.29-3.86-21.77-3.9-3.03-.02-5.41-1.22-6.75-4.01-.43-.88-.54-1.92-.8-2.88,0-.06,0-.11,0-.17.05-.18.13-.37.14-.55C.39,2.85,3.41-.18,7.55,0c3.06.14,6.12.3,9.16.63,7.36.79,14.46,2.69,21.24,5.65,18.91,8.27,32.77,21.77,41.41,40.53,4.69,10.19,6.91,20.96,7,32.17.02,2.46-.87,4.56-2.95,5.92-1.02.67-2.29.94-3.45,1.39Z"/><path class="cls-1" d="m53.13,86.3c-1.46-.3-2.87-.71-4.02-1.74-1.42-1.28-2.31-2.84-2.38-4.76-.15-3.91-.45-7.8-1.65-11.55-4.68-14.6-14.45-23.85-29.31-27.61-2.45-.62-5.05-.96-7.58-.95C4.2,39.69.94,37.93,0,33.52v-1.69c.39-1.73,1.07-3.29,2.48-4.46,1.38-1.15,2.96-1.69,4.74-1.66,16.14.29,29.58,6.47,40.25,18.55,6.84,7.75,10.95,16.84,12.5,27.05.39,2.57.52,5.2.57,7.8.08,3.73-2.4,6.51-6.1,7.06-.1.02-.2.08-.3.13h-1.01Z"/><path class="cls-1" d="m28.05,72.19c0,7.69-6.25,13.94-13.93,13.93-7.67-.01-13.96-6.33-13.92-13.96.05-7.67,6.25-13.85,13.91-13.87,7.7-.02,13.93,6.2,13.94,13.9Z"/></g></svg>