<?xml version="1.0" encoding="UTF-8"?><svg id="Layer_2" xmlns="http://www.w3.org/2000/svg" viewBox="0 0 119.62 80.43"><defs><style>.cls-1{fill:#fff;}</style></defs><g id="Layer_1-2"><path class="cls-1" d="m119.62,56.11c-.95,2.01-2.56,2.65-4.72,2.59-4.12-.11-8.25,0-12.38-.05-1.04-.01-1.82.28-2.61.95-7.4,6.26-14.83,12.49-22.26,18.72-4.73,3.97-11.42,2.13-13.04-3.59-.69-2.44-.18-4.68,1.04-6.91-1.29,1.07-2.56,2.17-3.86,3.22-3.68,2.95-8.75,2.34-11.46-1.37-1.94-2.64-2.02-6.23-.21-8.99.18-.28.38-.55.62-.9-4.6,1.67-7.72,1.12-10.17-1.71-2.42-2.81-2.45-6.04-.04-10.43-2.06,1.08-4.12,1.4-6.27.79-5.8-1.64-7.76-9.08-3.32-13.16,3.75-3.45,7.76-6.62,11.68-9.88.29-.24.78-.32,1.18-.32,7.2-.02,14.41-.03,21.61.01.5,0,1.12.3,1.49.66,2.73,2.66,5.39,5.41,8.12,8.07,4.31,4.19,9.44,5.56,15.15,3.78,5.57-1.74,9-5.69,10.17-11.44.86-4.22-.13-8.11-2.73-11.86h1.34c5.37,0,10.75.07,16.12-.03,2.15-.04,3.68.63,4.57,2.61v39.26Z"/><path class="cls-1" d="m34.78,60.65c-2.73.46-4.97-.02-6.86-2.22-1.92-2.24-4.12-4.25-6.26-6.29-.42-.4-1.13-.69-1.71-.69-5.26-.05-10.51-.03-15.77-.03C1.33,51.42,0,50.08,0,47.2,0,35.17,0,23.14,0,11.1c0-2.75,1.33-4.08,4.08-4.08,8.68,0,17.36-.01,26.04.02.81,0,1.37-.23,1.93-.81C36.17,1.99,41.19-.05,47.12,0c6.73.06,13.47.04,20.2,0,4.06-.02,7.55,1.32,10.43,4.18,4.5,4.47,9.03,8.92,13.45,13.47,4.42,4.55,2.44,11.85-3.58,13.31-2.99.72-5.63-.09-7.81-2.26-3.01-2.99-6.03-5.97-8.99-9.01-1.14-1.17-2.39-1.71-4.03-1.7-8.21.05-16.43,0-24.64.05-.62,0-1.37.28-1.85.68-4.15,3.41-8.26,6.87-12.37,10.33-8.81,7.42-6.67,21.07,3.96,25.44.36.15.75.52.89.88.34.86.48,1.8.81,2.67.32.87.76,1.69,1.19,2.61Z"/></g></svg>