<?xml version="1.0" encoding="UTF-8"?><svg id="Layer_2" xmlns="http://www.w3.org/2000/svg" viewBox="0 0 113.31 96.94"><defs><style>.cls-1{fill:#fff;}</style></defs><g id="Layer_1-2"><path class="cls-1" d="m113.31,63.75c-.89,2.66-2.77,3.66-5.52,3.57-3.49-.12-6.99-.03-10.63-.03,0,.83,0,1.59,0,2.35,0,2.36-.02,4.72,0,7.08.01,1.08-.24,1.98-1.27,2.5-1.05.53-1.9.09-2.74-.55-4.76-3.61-9.53-7.21-14.32-10.76-.48-.36-1.19-.59-1.79-.59-6.86-.04-13.72-.02-20.58-.03-3.09,0-4.89-1.79-4.89-4.86,0-11.43,0-22.87,0-34.3,0-3.08,1.8-4.88,4.88-4.88,17.11,0,34.22.03,51.34-.03,2.74,0,4.63.92,5.53,3.57v36.96Z"/><path class="cls-1" d="m16.16,84.77c-3.7,0-7.27,0-10.84,0-3.69,0-5.32-1.62-5.32-5.32,0-11.21,0-22.43,0-33.64,0-3.37,1.73-5.08,5.12-5.08,12.87,0,25.74,0,38.62,0h1.19v1.29c0,6.75,0,13.5,0,20.25,0,6.94,4.72,11.66,11.67,11.66,1.66,0,3.32,0,5.06,0,.03.31.08.59.08.87,0,1.73.01,3.47,0,5.2-.01,2.94-1.83,4.77-4.76,4.77-6.9,0-13.79-.01-20.69.03-.63,0-1.37.27-1.88.65-4.77,3.53-9.5,7.11-14.24,10.69-.84.63-1.69,1.08-2.74.56-1.08-.53-1.29-1.49-1.28-2.6.03-3.06,0-6.12,0-9.34Z"/><path class="cls-1" d="m44.92,34.06h-19.09c-.02-.41-.05-.8-.05-1.19,0-9.25,0-18.51,0-27.76C25.79,1.71,27.5,0,30.88,0c17.18,0,34.36,0,51.54,0,3.38,0,5.09,1.71,5.1,5.1,0,3.43,0,6.86,0,10.29,0,.36,0,.73,0,1.21-.53,0-.96,0-1.39,0-9.81,0-19.61,0-29.42,0-7.1,0-11.79,4.68-11.79,11.76,0,1.87,0,3.74,0,5.7Z"/></g></svg>