<?xml version="1.0" encoding="UTF-8"?><svg id="Layer_2" xmlns="http://www.w3.org/2000/svg" viewBox="0 0 83.48 109.58"><defs><style>.cls-1{fill:#fff;}</style></defs><g id="Layer_1-2"><path class="cls-1" d="m75.14,109.58H8.35c-.09-.05-.18-.12-.28-.14C2.77,108.17,0,104.69,0,99.27,0,69.6,0,39.93,0,10.26,0,4.07,4.07,0,10.24,0c13.3,0,26.61,0,39.91,0,.38,0,.76,0,1.22,0v1.28c0,6.88,0,13.77,0,20.65,0,6.09,4.1,10.17,10.22,10.17,6.88,0,13.77,0,20.65,0,.38,0,.76,0,1.23,0,0,.5,0,.88,0,1.27,0,8.59,0,17.19,0,25.78,0,13.48,0,26.96,0,40.44,0,4.43-2.45,8-6.41,9.42-.63.23-1.29.38-1.93.57ZM41.73,45.16c-6.31,0-12.62,0-18.93,0-1.5,0-2.65.58-3.27,1.96-.99,2.19.66,4.46,3.23,4.47,7.84.01,15.68,0,23.52,0,4.81,0,9.62,0,14.44,0,1.46,0,2.57-.58,3.19-1.91,1.02-2.19-.6-4.5-3.16-4.51-6.34-.01-12.69,0-19.03,0Zm-.01,12.84c-6.31,0-12.62,0-18.93,0-1.51,0-2.64.59-3.26,1.97-.98,2.2.67,4.45,3.25,4.46,8.55,0,17.11,0,25.66,0,4.1,0,8.2,0,12.3,0,1.46,0,2.57-.58,3.18-1.92,1.01-2.19-.61-4.5-3.17-4.5-6.34-.01-12.69,0-19.03,0Zm.03,19.26c6.31,0,12.62,0,18.93,0,1.45,0,2.58-.53,3.22-1.86,1.06-2.18-.53-4.55-3.07-4.56-6.81-.02-13.62,0-20.42,0-5.88,0-11.76,0-17.64,0-1.41,0-2.5.53-3.14,1.81-1.11,2.2.5,4.61,3.1,4.61,6.34.02,12.69,0,19.03,0Zm-6.32,6.42c-4.17,0-8.34,0-12.51,0-2.17,0-3.64,1.28-3.65,3.18-.02,1.91,1.45,3.24,3.6,3.24,8.3,0,16.6,0,24.91,0,2.15,0,3.61-1.33,3.6-3.23-.01-1.91-1.47-3.18-3.65-3.18-4.1,0-8.2,0-12.29,0Z"/><path class="cls-1" d="m57.83,2.22c7.81,7.8,15.61,15.6,23.4,23.39-.09.01-.31.07-.53.07-6.49,0-12.97.01-19.46,0-2.04,0-3.44-1.31-3.44-3.28-.02-6.63,0-13.25,0-19.88,0-.13.03-.25.03-.3Z"/></g></svg>