<?xml version="1.0" encoding="UTF-8"?><svg id="Layer_2" xmlns="http://www.w3.org/2000/svg" viewBox="0 0 100.68 97.91"><defs><style>.cls-1{fill:#fff;}</style></defs><g id="Layer_1-2"><path class="cls-1" d="m0,3.37C.93.82,2.8-.07,5.44,0c3.65.11,7.31.02,10.97.03,2.64,0,4,.97,4.83,3.45,1.22,3.62,2.42,7.24,3.63,10.86.73,2.18,1.51,2.74,3.79,2.74,22.31,0,44.62,0,66.93,0,.66,0,1.35-.02,1.98.14,2.45.62,3.69,3.09,2.85,5.66-1.43,4.35-2.88,8.69-4.32,13.04-2.23,6.7-4.47,13.4-6.71,20.11-.88,2.63-2.18,3.58-4.93,3.58-14.7,0-29.39,0-44.09,0-2.43,0-3.11.53-3.7,2.86-.23.9-.49,1.8-.69,2.7-.35,1.57.53,2.77,2.14,2.95.39.04.8.02,1.2.02,16.46,0,32.92,0,49.37.01.72,0,1.48.04,2.16.27,1.93.64,3.02,2.59,2.72,4.67-.28,1.9-1.94,3.39-3.91,3.51-.27.02-.53.02-.8.02-16.72,0-33.45,0-50.17,0-5.54,0-9.88-3.48-11.04-8.8-.37-1.69-.27-3.37.16-5.03,2-7.69,1.87-7.13-.6-14.49-4.15-12.4-8.27-24.8-12.41-37.2-.64-1.93-1.49-2.53-3.53-2.54-1.99,0-3.99-.08-5.98.02-2.63.13-4.42-.89-5.28-3.41v-1.8Z"/><path class="cls-1" d="m83.79,97.91c-.8-.29-1.63-.52-2.4-.88-3.72-1.8-5.58-5.98-4.45-9.94,1.15-4.04,4.89-6.53,9.2-6.13,3.8.36,7.14,3.75,7.43,7.55.33,4.33-2.2,8.01-6.26,9.11-.31.08-.62.2-.93.29h-2.59Z"/><path class="cls-1" d="m32.72,97.91c-.8-.29-1.63-.52-2.4-.88-3.72-1.8-5.58-5.98-4.45-9.94,1.15-4.04,4.89-6.53,9.2-6.13,3.8.36,7.14,3.75,7.43,7.55.33,4.33-2.2,8.01-6.26,9.11-.31.08-.62.2-.93.29h-2.59Z"/></g></svg>