<?xml version="1.0" encoding="UTF-8"?><svg id="Layer_2" xmlns="http://www.w3.org/2000/svg" viewBox="0 0 110.15 84.11"><defs><style>.cls-1{fill:#fff;}</style></defs><g id="Layer_1-2"><path class="cls-1" d="m110.15,81.01c-1.36,2.88-2.6,3.5-5.72,2.83-9.58-2.06-19.25-3.07-29.04-2.37-3.81.27-7.59.95-11.39,1.44.48-.42,1.02-.94,1.61-1.4,4.7-3.73,10.08-6.04,15.93-7.11,3.82-.7,7.73-1.02,11.62-1.29,4.14-.29,7.24-2.03,9.16-5.74.85-1.63,1.02-3.41,1.02-5.22,0-15.66,0-31.33,0-46.99,0-.46,0-.92,0-1.37,3.82-.48,5.48-.17,6.81,2.87v64.33Z"/><path class="cls-1" d="m51.99,79.92c-.87-.8-1.57-1.48-2.32-2.13-6.42-5.56-13.97-8.62-22.28-9.87-3.35-.51-6.76-.68-10.15-.9-2.76-.18-4.32-1.68-4.32-4.42,0-19.43,0-38.85,0-58.28C12.92,1.68,14.56-.04,17.07,0c5.68.1,11.28.79,16.69,2.64,7.16,2.46,13.12,6.52,17.27,12.95.55.86.95,1.99.95,2.99.05,20.18.04,40.36.04,60.54,0,.2-.02.4-.05.8Z"/><path class="cls-1" d="m58.12,79.8v-1.38c0-19.32.06-38.64-.06-57.96-.02-2.89.96-5.09,2.68-7.21,5.43-6.68,12.62-10.37,20.89-11.99,3.71-.73,7.52-.94,11.3-1.23,2.54-.2,4.3,1.56,4.3,4.14.01,19.53.01,39.07,0,58.6,0,2.6-1.63,4.19-4.38,4.23-5.32.08-10.57.7-15.71,2.12-6.96,1.92-13.18,5.14-18.35,10.26-.1.1-.2.2-.32.29-.05.04-.13.05-.35.13Z"/><path class="cls-1" d="m46.51,83.09c-2.94-.46-5.53-.95-8.14-1.27-5.57-.69-11.15-.7-16.74-.29-5.55.41-11.02,1.27-16.46,2.44C2.11,84.63,0,82.86,0,79.75,0,59.17,0,38.59,0,18.02c0-2.82,1.57-4.35,4.41-4.37.75,0,1.5,0,2.4,0,0,.53,0,.99,0,1.44,0,15.74.01,31.48,0,47.21,0,3.55,1.16,6.51,4.01,8.72,1.86,1.44,3.99,2.02,6.31,2.07,4.49.09,8.94.55,13.3,1.68,5.55,1.44,10.67,3.73,15.04,7.51.27.23.56.43,1.04.8Z"/></g></svg>