<?xml version="1.0" encoding="UTF-8"?><svg id="Layer_2" xmlns="http://www.w3.org/2000/svg" viewBox="0 0 94.33 99.19"><defs><style>.cls-1{fill:#fff;}</style></defs><g id="Layer_1-2"><path class="cls-1" d="m4.18,99.19c10.48-9.2,20.78-18.24,31.14-27.33,1.87,1.63,3.67,3.19,5.47,4.76,1.52,1.33,3.04,2.66,4.56,3.98,1.7,1.48,2.32,1.47,4.05-.02,3.34-2.88,6.68-5.76,10.13-8.74,10.46,9.06,20.91,18.12,31.56,27.35H4.18Z"/><path class="cls-1" d="m79.51,39.21h11.6c-14.68,12.66-29.18,25.15-43.74,37.7-14.36-12.53-28.68-25.03-43.13-37.64.34-.06.55-.12.75-.12,3.42,0,6.84-.02,10.27.02.39,0,.9.29,1.13.61,3,4.13,7.01,6.2,12.13,5.99.58-.02.84.14,1.06.67,1.27,3.1,2.57,6.18,3.87,9.27,1.58,3.77,5.1,5.09,8.74,3.27.76-.38,1.53-.76,2.28-1.17,3-1.64,4.1-4.68,2.82-7.85-.93-2.31-1.91-4.61-2.86-6.91-.15-.37-.29-.76-.47-1.23,6.7-.43,13.2.07,19.49,2.31.3.11.58.35.8.59,2.52,2.9,6.02,3.94,9.42,2.79,3.33-1.13,5.53-4.09,5.81-7.83,0-.13.03-.27.05-.46Z"/><path class="cls-1" d="m37.66,20.41c3.32-2.02,6.56-3.85,9.65-5.91,3.58-2.38,6.72-5.28,9.35-8.69.25-.32.43-.78.44-1.18.08-2.49,1.6-4.27,3.98-4.59,2.13-.29,4.16,1.15,4.79,3.46,1.06,3.89,2.08,7.78,3.13,11.67.04.16.11.32.2.58,1.72-.62,3.37-.5,4.89.51,1.09.73,1.81,1.74,2.15,3.02.76,2.91-.64,5.09-4.35,6.63,1.01,3.74,2.05,7.48,3,11.25.27,1.06.44,2.24.27,3.3-.28,1.83-1.81,3.13-3.69,3.34-1.82.21-3.23-.55-4.3-2.04-.33-.46-.82-.92-1.34-1.12-6.68-2.61-13.64-3.35-20.74-3.02-2.74.13-2.74.19-3.44-2.44-1.34-4.98-2.68-9.95-3.97-14.78Z"/><path class="cls-1" d="m.28,41.27c10.77,9.4,21.28,18.57,31.92,27.86-10.57,9.28-21.09,18.51-31.87,27.97-.13-.93-.32-1.63-.32-2.34C0,85.53,0,76.3,0,67.06c0-7.76,0-15.53.01-23.29,0-.73.15-1.46.27-2.5Z"/><path class="cls-1" d="m94.33,41.86v54.69c-10.64-9.22-21.09-18.28-31.65-27.42,10.53-9.08,20.98-18.09,31.65-27.27Z"/><path class="cls-1" d="m38.47,39.27c-3.41.82-6.68,1.9-10.04,2.33-4.87.62-9.08-2.81-10.05-7.7-.9-4.49,1.88-9.21,6.39-10.62,2.86-.9,5.78-1.59,8.77-2.41,1.64,6.11,3.25,12.13,4.93,18.4Z"/><path class="cls-1" d="m33.33,44.82c2.29-.62,4.42-1.19,6.65-1.79,1.24,3.01,2.48,5.95,3.65,8.93.34.87-.1,1.63-.88,2.08-.91.53-1.86,1.02-2.82,1.45-.99.44-2.02.12-2.44-.84-1.4-3.21-2.73-6.46-4.15-9.83Z"/><path class="cls-1" d="m83.73,4.26c-.35.66-.51,1.22-.87,1.59-1.49,1.56-3.02,3.08-4.56,4.58-.88.86-2.07.85-2.83.05-.74-.77-.73-1.91.09-2.76,1.5-1.55,3.04-3.06,4.56-4.58.65-.64,1.47-.9,2.24-.43.55.34.9,1,1.37,1.55Z"/><path class="cls-1" d="m90.18,29.23c0,1.44-1.1,2.38-2.35,2.07-2.18-.54-4.35-1.13-6.51-1.76-1.07-.31-1.62-1.31-1.38-2.29.25-1,1.2-1.67,2.27-1.41,2.25.54,4.48,1.16,6.71,1.8.84.24,1.24.91,1.27,1.59Z"/><path class="cls-1" d="m83.81,19.26c-1.33,0-2.09-.58-2.29-1.44-.22-.92.16-1.94,1.04-2.21,2.25-.68,4.53-1.29,6.83-1.83.82-.2,1.71.52,1.96,1.33.27.89-.06,1.98-.94,2.26-2.3.74-4.65,1.34-6.6,1.89Z"/></g></svg>