<?xml version="1.0" encoding="UTF-8"?><svg id="Layer_2" xmlns="http://www.w3.org/2000/svg" viewBox="0 0 119.75 87.77"><defs><style>.cls-1{fill:#fff;}</style></defs><g id="Layer_1-2"><path class="cls-1" d="m87.75,87.71h-55.74c-.02-.28-.06-.52-.06-.76,0-6.52-.12-13.05.03-19.57.21-8.97,3.96-16.23,11.04-21.77,1.5-1.18,3.02-1.23,4.78-.54,2.61,1.03,5.29,1.87,8.09,2.84,0,1.79,0,3.82,0,5.86,0,4.57,0,9.14,0,13.71,0,2.52,1.7,4.33,4,4.32,2.3,0,3.97-1.82,3.97-4.35.01-6.15,0-12.3,0-18.45v-1.04c3.11-1.12,6.01-2.2,8.94-3.2,1.39-.47,2.68-.12,3.86.79,6.69,5.17,10.58,11.97,11.01,20.38.37,7.21.08,14.45.08,21.79Z"/><path class="cls-1" d="m59.92,0c11.01.02,19.94,9.02,19.9,20.05-.04,10.94-9.03,19.86-19.99,19.84-11-.02-19.94-9.02-19.9-20.06C39.97,8.89,48.95-.02,59.92,0Z"/><path class="cls-1" d="m91.18,50.21c.82.2,1.38.28,1.91.47,4.43,1.58,8.87,1.6,13.29,0,1.66-.6,3.13-.41,4.58.62,5.58,3.99,8.59,9.38,8.73,16.24.11,5.36.04,10.72.02,16.08,0,2.29-1.61,4.09-3.81,4.11-6.64.05-13.29.02-20.12.02,0-.48,0-.92,0-1.36,0-5.86-.04-11.72.01-17.57.06-6.27-1.27-12.18-4.21-17.73-.1-.18-.17-.37-.41-.89Z"/><path class="cls-1" d="m28.36,50.3c-.94,2.38-1.93,4.61-2.72,6.9-1.2,3.52-1.69,7.18-1.68,10.9.02,6.06,0,12.13,0,18.2,0,.45,0,.89,0,1.47-.47,0-.83,0-1.2,0-6.07,0-12.13,0-18.2,0-2.96,0-4.54-1.58-4.54-4.53,0-5.23-.09-10.47.02-15.7.15-6.97,3.25-12.4,8.96-16.37,1.29-.9,2.66-1.07,4.13-.54,4.59,1.67,9.18,1.64,13.77-.02.45-.16.94-.2,1.44-.3Z"/><path class="cls-1" d="m20.04,15.96c8.76.02,15.91,7.22,15.89,15.99-.01,8.82-7.24,15.97-16.08,15.93-8.74-.05-15.86-7.27-15.83-16.05.03-8.74,7.24-15.88,16.02-15.86Z"/><path class="cls-1" d="m99.82,47.87c-8.77.02-15.97-7.13-16-15.88-.03-8.83,7.15-16.04,15.97-16.03,8.77,0,15.94,7.18,15.94,15.94,0,8.77-7.15,15.96-15.91,15.97Z"/></g></svg>