<?xml version="1.0" encoding="UTF-8"?><svg id="Layer_2" xmlns="http://www.w3.org/2000/svg" viewBox="0 0 108.28 104.84"><defs><style>.cls-1{fill:#fff;}</style></defs><g id="Layer_1-2"><path class="cls-1" d="m67.35,104.84c0-1.68.01-3.23,0-4.79-.02-1.96-1.25-3.3-2.99-3.3-1.74,0-2.96,1.35-2.97,3.32-.01,1.55,0,3.11,0,4.77-.47,0-.85,0-1.23,0-18.78,0-37.57,0-56.35,0-2.75,0-3.79-1.04-3.79-3.79,0-4.65.02-9.3-.01-13.95,0-1.22.39-2.16,1.23-3.04,5.23-5.5,5.21-13.48-.04-18.98C.37,64.22,0,63.3,0,62.12c.03-4.79,0-9.59.01-14.38,0-2.24,1.17-3.41,3.42-3.41,19,0,37.99,0,56.99,0,.28,0,.55,0,.96,0,0,1.77-.05,3.46.01,5.15.08,2.28,2.37,3.62,4.34,2.58,1.11-.59,1.6-1.56,1.61-2.79,0-.82,0-1.63,0-2.45,0-.78,0-1.56,0-2.49h1.17c8.06,0,16.12,0,24.18,0,2.53,0,3.62,1.1,3.62,3.63,0,4.72-.02,9.44.01,14.17,0,1.18-.38,2.1-1.19,2.95-5.26,5.5-5.28,13.44-.03,18.97.84.88,1.23,1.83,1.22,3.05-.03,4.72-.01,9.44-.01,14.17,0,2.45-1.12,3.57-3.58,3.57-8.1,0-16.19,0-24.29,0-.32,0-.63,0-1.11,0Zm-44.95-15.13c-.09,2.48,2.26,3.96,4.45,2.85,2.59-1.31,5.16-2.68,7.72-4.06.6-.33,1.07-.31,1.67.01,2.52,1.37,5.08,2.69,7.62,4.02,1.14.6,2.26.6,3.31-.18,1.04-.78,1.36-1.85,1.14-3.11-.49-2.83-.93-5.67-1.48-8.49-.14-.71.07-1.1.54-1.56,2.1-2.01,4.18-4.05,6.25-6.1.88-.87,1.18-1.92.76-3.12-.42-1.18-1.29-1.82-2.52-2.01-2.84-.42-5.68-.88-8.53-1.23-.75-.09-1.1-.4-1.41-1.04-1.21-2.52-2.49-5.02-3.71-7.53-.58-1.18-1.43-1.93-2.8-1.94-1.42-.01-2.28.76-2.88,1.98-1.22,2.52-2.5,5.01-3.71,7.54-.29.6-.62.9-1.33.99-2.78.36-5.54.82-8.32,1.2-1.35.18-2.35.76-2.8,2.09-.46,1.35.05,2.41,1.02,3.34,2.02,1.95,4.01,3.92,6.03,5.87.44.43.64.8.52,1.47-.57,3.03-1.05,6.08-1.55,9.01Zm59.87-15.05c0-5,0-10.01,0-15.01,0-1.05-.24-1.98-1.07-2.66-.92-.77-1.98-.96-3.08-.47-1.22.54-1.81,1.54-1.82,2.87,0,3.83,0,7.66,0,11.5,0,6.21,0,12.42,0,18.63,0,1.36.44,2.44,1.69,3.07,2.06,1.03,4.27-.47,4.28-2.92.02-5,0-10.01,0-15.01Zm-14.92-9.29c0-.85.02-1.7,0-2.55-.06-1.73-1.3-2.97-2.96-2.97-1.66,0-2.94,1.22-2.99,2.94-.04,1.7-.04,3.4,0,5.1.04,1.72,1.33,2.99,2.96,3,1.62.01,2.92-1.26,2.99-2.97.03-.85,0-1.7,0-2.55Zm0,18.46c0-.85.03-1.7,0-2.55-.06-1.73-1.32-2.99-2.96-3-1.63,0-2.94,1.26-2.98,2.97-.04,1.7-.04,3.4,0,5.1.04,1.73,1.3,2.97,2.96,2.97,1.66,0,2.92-1.22,2.99-2.95.03-.85,0-1.7,0-2.55Z"/><path class="cls-1" d="m27.48,38.28c4.85-4.86,9.71-9.72,14.7-14.72,1.07,1.1,2.2,2.27,3.34,3.43.97.98,2.12,1.29,3.41.78,1.98-.78,2.47-3.23.94-4.84-1.17-1.23-2.43-2.37-3.68-3.58.35-.37.59-.63.84-.88,5.67-5.67,11.35-11.35,17.02-17.02,1.95-1.95,3.4-1.95,5.35,0,3.26,3.26,6.51,6.54,9.8,9.78.92.9,1.36,1.9,1.38,3.2.08,7.31,5.9,13.15,13.22,13.26,1.29.02,2.31.42,3.22,1.34,3.29,3.34,6.62,6.64,9.93,9.95,1.8,1.8,1.8,3.32.01,5.13-1.47,1.48-2.95,2.96-4.53,4.55-.1-1.09-.12-2.03-.28-2.95-.76-4.26-4.35-7.3-8.66-7.36-2.02-.02-4.05-.03-6.07,0-.69.01-1.18-.2-1.67-.69-6.01-6.04-12.04-12.05-18.06-18.09-.88-.88-1.85-1.43-3.14-1.11-2.09.52-2.97,2.88-1.7,4.63.25.34.56.64.86.94,4.42,4.42,8.83,8.84,13.26,13.25.28.27.61.49.79.96h-13.93c.05-1.33-.74-2.25-1.66-3.11-.93-.87-1.8-1.82-2.72-2.7-1.31-1.26-3.1-1.31-4.3-.16-1.26,1.21-1.25,2.98.07,4.36.49.51,1.06.93,1.59,1.39-.05.08-.11.16-.16.24h-29.14Z"/><path class="cls-1" d="m41.41,84.51c-1.54-.81-2.87-1.47-4.16-2.19-1.26-.71-2.46-.72-3.73,0-1.29.73-2.62,1.39-4.17,2.2.28-1.71.48-3.22.79-4.72.28-1.35-.07-2.42-1.05-3.37-1.09-1.06-2.11-2.19-3.27-3.4,1.21-.19,2.39-.49,3.58-.54,2.13-.09,3.5-1.05,4.26-3.05.43-1.14,1.07-2.2,1.71-3.5.74,1.49,1.44,2.75,2,4.07.64,1.51,1.73,2.24,3.33,2.4,1.4.14,2.79.38,4.28.59-1.15,1.19-2.16,2.32-3.25,3.35-1.06,1-1.43,2.11-1.12,3.54.32,1.44.5,2.92.78,4.61Z"/></g></svg>