<?xml version="1.0" encoding="UTF-8"?><svg id="Layer_2" xmlns="http://www.w3.org/2000/svg" viewBox="0 0 108.48 108.49"><defs><style>.cls-1{fill:#fff;}</style></defs><g id="Layer_1-2"><path class="cls-1" d="m37.48,108.49c-1.9-.13-3.8-.25-5.69-.41-5.94-.49-11.75-1.57-17.21-4.07-8.05-3.69-12.96-9.86-14.17-18.69-1.64-11.88,1.71-22.48,8.71-32.04,2.99-4.08,6.62-7.52,10.82-10.34.23-.15.43-.34.41-.32-.39-1.54-1.02-2.92-1.03-4.29-.02-3.4,2.7-5.99,6.17-6.13,1.48-.06,2.97-.02,4.45-.02,9.01,0,18.01,0,27.02,0,3.77,0,6.46,2.38,6.77,5.91.14,1.6-.46,2.97-1.34,4.28,1.99,1.55,3.95,3.08,5.99,4.66-1.98,1.58-3.38,3.37-4.07,5.64-1.16,3.83-.53,7.34,2.08,10.4.61.72.59,1.12-.01,1.82-3.51,4.05-3.51,10.01,0,14.06.6.69.65,1.1.02,1.82-3.55,4.09-3.52,10,.02,14.15.39.46.82.81.2,1.49-2.3,2.52-3.21,5.5-2.69,8.89.02.1,0,.21,0,.54-1.94.45-3.89,1.06-5.89,1.33-3.74.5-7.5.79-11.26,1.17-.42.04-.83.1-1.25.15h-8.05Zm7.21-52.07c0-.57,0-1.13,0-1.7-.03-2.05-1.35-3.48-3.21-3.46-1.81.02-3.12,1.43-3.15,3.41-.02,1.13-.06,2.26.02,3.39.05.79-.24,1.15-.95,1.49-3.34,1.65-5.26,4.36-5.4,8.1-.15,3.81,1.53,6.71,4.81,8.7,1.63.99,3.46,1.1,5.28,1.37,1.58.23,2.68,1.73,2.56,3.27-.12,1.6-1.38,2.85-2.95,2.94-1.66.09-3.07-1-3.34-2.61-.06-.35-.05-.71-.11-1.05-.34-1.7-1.78-2.79-3.44-2.62-1.68.18-2.87,1.5-2.83,3.25.06,3.18,1.31,5.93,4.01,7.51,1.86,1.09,2.58,2.2,2.41,4.31-.14,1.72,1.46,3.05,3.15,3.02,1.65-.02,3.01-1.31,3.12-3,.04-.63.07-1.28,0-1.91-.09-.82.22-1.2.98-1.58,3.38-1.69,5.25-4.51,5.32-8.27.07-3.7-1.62-6.56-4.84-8.48-1.6-.96-3.39-1.11-5.17-1.34-1.54-.19-2.64-1.54-2.65-3.09,0-1.56,1.1-2.87,2.63-3.12,2.01-.33,3.48.98,3.73,3.32.2,1.84,1.57,3.03,3.37,2.93,1.74-.1,3.05-1.55,2.95-3.36-.17-3.28-1.49-6.07-4.39-7.64-1.75-.95-2.27-2.03-1.93-3.8Z"/><path class="cls-1" d="m108.48,56.98c-.66,1.76-1.66,3.19-3.62,3.64-.44.1-.91.17-1.36.17-9.47,0-18.93.02-28.4,0-2.29,0-4.05-1.26-4.72-3.25-.64-1.92-.09-4.06,1.59-5.19.86-.58,2-1.03,3.02-1.04,9.54-.08,19.07-.06,28.61-.04,2.57,0,4.04,1.52,4.88,3.81v1.91Z"/><path class="cls-1" d="m108.48,72.88c-.66,1.76-1.66,3.19-3.62,3.64-.44.1-.91.17-1.36.17-9.47,0-18.93.02-28.4,0-2.29,0-4.05-1.26-4.72-3.25-.64-1.92-.09-4.06,1.59-5.19.86-.58,2-1.03,3.02-1.04,9.54-.08,19.07-.06,28.61-.04,2.57,0,4.04,1.52,4.88,3.81v1.91Z"/><path class="cls-1" d="m108.48,88.78c-.66,1.76-1.66,3.19-3.62,3.64-.44.1-.91.17-1.36.17-9.47,0-18.93.02-28.4,0-2.29,0-4.05-1.26-4.72-3.25-.64-1.92-.09-4.06,1.59-5.19.86-.58,2-1.03,3.02-1.04,9.54-.08,19.07-.06,28.61-.04,2.57,0,4.04,1.52,4.88,3.81v1.91Z"/><path class="cls-1" d="m73.93,108.49c-.62-.31-1.29-.56-1.86-.95-1.61-1.14-2.29-3.17-1.76-5.06.54-1.95,2.16-3.31,4.19-3.49.42-.04.85-.03,1.27-.03,8.86,0,17.71.06,26.57-.04,3-.03,5.14.89,6.14,3.85v1.91c-.63,1.91-1.9,3.18-3.81,3.82h-30.73Z"/><path class="cls-1" d="m24.36,25.74c-1.26-3.88-2.54-7.8-3.81-11.72-.35-1.07-.72-2.14-1.04-3.22-.77-2.55.63-4.46,3.29-4.48,2.9-.02,5.79-.03,8.69.01.72,0,1.08-.17,1.43-.87C34.67,1.91,37.59-.01,41.53,0c3.9.01,6.78,1.93,8.51,5.45.33.67.69.9,1.42.89,2.9-.04,5.79-.03,8.69-.01,2.73.01,4.16,1.92,3.33,4.52-1.52,4.77-3.07,9.53-4.65,14.28-.1.29-.54.67-.82.67-11.13.03-22.25.02-33.38.02-.07,0-.14-.03-.28-.07Z"/></g></svg>