<?xml version="1.0" encoding="UTF-8"?><svg id="Layer_2" xmlns="http://www.w3.org/2000/svg" viewBox="0 0 82.92 82.79"><defs><style>.cls-1{fill:#fff;}</style></defs><g id="Layer_1-2"><path class="cls-1" d="m.06,82.79C.03,82.32,0,82.01,0,81.7,0,57.34.02,32.98.03,8.62.04,4.3,2.67.96,6.71.15,7.34.02,8,0,8.65,0,30.51,0,52.38,0,74.25,0c4.4,0,7.71,2.62,8.52,6.73.14.69.14,1.42.14,2.13,0,16.2,0,32.4,0,48.59,0,5.45-3.47,8.89-8.94,8.89-18.79,0-37.58,0-56.37-.01-.74,0-1.26.21-1.78.73-4.95,4.99-9.93,9.95-14.9,14.92-.24.24-.5.46-.87.8ZM8.35,8.32v54.6c1.47-1.5,2.78-2.79,4.03-4.14.53-.57,1.09-.76,1.87-.76,19.7.02,39.4.02,59.09.02.41,0,.82,0,1.26,0V8.32H8.35Z"/><path class="cls-1" d="m17.52,49.77c-.53,0-.95-.44-.95-.97v-.17c0-2.72.03-5.44-.02-8.16-.01-.72.23-1.19.72-1.68,7.73-7.7,15.44-15.43,23.16-23.14,1.54-1.54,2.46-1.54,4,0,2.15,2.15,4.31,4.3,6.46,6.46,1.3,1.31,1.3,2.34-.02,3.66-7.73,7.71-15.45,15.42-23.2,23.1-.47.47-1.4.86-2.06.88-2.69.05-5.38.02-8.08.02,0,0,0,0,0,0Z"/><path class="cls-1" d="m66.3,41.89v7.4c0,.23-.19.42-.42.42h-29.58c-.37,0-.57-.45-.3-.72,0,0,0,0,0,0,2.33-2.34,4.66-4.69,7.02-7,.27-.26.7-.5,1.06-.5,7.26-.03,14.52-.02,21.77-.02.01,0,.02,0,.04,0,.23,0,.41.2.41.42Z"/></g></svg>