<?xml version="1.0" encoding="UTF-8"?><svg id="Layer_2" xmlns="http://www.w3.org/2000/svg" viewBox="0 0 121 114.01"><defs><style>.cls-1{fill:#fff;}</style></defs><g id="Layer_1-2"><path class="cls-1" d="m121,68.11c-.3,1.13-.55,2.28-.92,3.39-2.16,6.38-8.01,10.78-14.74,11.07-1.81.08-3.62.05-5.43.03-2.47-.02-3.93-1.5-3.94-4.01,0-10.12,0-20.24,0-30.36,0-4.21.13-8.42-.74-12.59-3.12-14.8-15.54-26.12-30.58-27.83-17.76-2.02-34.06,9.1-38.46,26.43-.77,3.02-1.07,6.22-1.1,9.34-.13,11.5-.05,23-.05,34.5,0,3.01-.91,4.27-3.9,4.56-6.88.66-13.13-.64-17.68-6.44C1.17,73.29.04,69.94.02,66.24c-.03-3.31-.01-6.62,0-9.92.02-9.34,7.11-16.56,16.43-16.75.35,0,.7,0,1.11,0,1.41-13.29,7.35-23.94,18.17-31.69C43.85,2.05,53.02-.45,62.99.07c22.13,1.15,39.35,19.31,40.47,39.37,1.34.14,2.72.17,4.05.43,7.06,1.37,12.05,6.57,13.29,13.75.03.19.13.36.2.55v13.94Z"/><path class="cls-1" d="m60.51,113.99c-1.57,0-3.15.03-4.72,0-4.22-.09-7.49-3.39-7.5-7.54,0-4.06,3.23-7.45,7.37-7.56,3.22-.09,6.45-.09,9.68,0,4.14.11,7.38,3.49,7.38,7.56,0,4.14-3.28,7.45-7.49,7.54-1.57.03-3.15,0-4.72,0Z"/><path class="cls-1" d="m44.11,104.35v4.06c-14.85,1.64-26.58-9.6-28.03-21.37h4.04c3.54,12.03,11.62,17.68,23.99,17.31Z"/></g></svg>