<?xml version="1.0" encoding="UTF-8"?><svg id="Layer_2" xmlns="http://www.w3.org/2000/svg" viewBox="0 0 111.8 111.83"><defs><style>.cls-1{fill:#fff;}</style></defs><g id="Layer_1-2"><path class="cls-1" d="m111.8,109.18c-.86,1.97-2.36,2.66-4.51,2.65-14.15-.06-28.31-.03-42.46-.03-3.02,0-4.29-1.28-4.29-4.33,0-14.19,0-28.38,0-42.57,0-3.02,1.31-4.35,4.29-4.35,5.13,0,10.26,0,15.39,0h1.21c.03.48.07.9.07,1.32,0,4.15-.02,8.3.01,12.44.03,3.26,2.69,5.44,5.73,4.75,2.11-.47,3.57-2.32,3.59-4.62.02-4.18,0-8.37,0-12.55,0-.4,0-.79,0-1.34h1.23c5.02,0,10.04.06,15.06-.03,2.15-.04,3.73.61,4.67,2.6v46.07Z"/><path class="cls-1" d="m78.83,0c2.02.81,2.71,2.3,2.7,4.46-.06,14.15-.03,28.31-.03,42.46,0,3.12-1.23,4.34-4.37,4.34-14.15,0-28.31-.03-42.46.03-2.57.01-4.43-1.32-4.41-4.38.08-14.15.07-28.31,0-42.46,0-2.16.69-3.64,2.71-4.46h18.34c-.01,4.8-.08,9.6,0,14.4.04,2.38,2.16,4.2,4.59,4.2,2.43,0,4.55-1.82,4.59-4.2.08-4.8,0-9.6,0-14.4h18.34Z"/><path class="cls-1" d="m20.96,60.54c0,2.83,0,5.52,0,8.2,0,1.86-.01,3.71,0,5.57.02,2.79,2.02,4.89,4.65,4.89,2.57,0,4.63-2.04,4.67-4.77.05-3.75.01-7.49.02-11.24,0-.83,0-1.66,0-2.65.48,0,.87,0,1.26,0,5.17,0,10.33,0,15.5,0,2.86,0,4.2,1.35,4.2,4.22,0,14.26,0,28.52,0,42.79,0,2.97-1.29,4.25-4.26,4.25-14.26,0-28.52,0-42.79,0-2.9,0-4.21-1.3-4.21-4.17,0-14.3,0-28.6,0-42.9,0-2.86,1.34-4.19,4.22-4.19,5.17,0,10.33,0,15.5,0,.36,0,.72,0,1.25,0Z"/></g></svg>