<?xml version="1.0" encoding="UTF-8"?><svg id="Layer_2" xmlns="http://www.w3.org/2000/svg" viewBox="0 0 111.91 106.17"><defs><style>.cls-1{fill:#fff;}</style></defs><g id="Layer_1-2"><path class="cls-1" d="m0,87.85c18.57,0,37.14-.01,55.71-.01.21,0,.42.03.73.06,0,1.61.06,3.17-.01,4.72-.24,5.23,1.24,9.77,5.39,13.42-.38.06-.6.13-.81.13-16.39,0-32.77.02-49.16,0-5.97-.01-10.48-3.79-11.67-9.63-.03-.13-.12-.25-.19-.37,0-2.77,0-5.54,0-8.31Z"/><path class="cls-1" d="m15.65,84.42c.14-22.16.29-44.18.43-66.26h45.06c0,2.87-.25,5.72.07,8.51.32,2.78,1.2,5.5,1.84,8.29h-.95c-5.5,0-11,0-16.5,0-.33,0-.66-.03-.98.03-.9.16-1.46.73-1.47,1.64,0,.9.49,1.52,1.42,1.67.39.06.8.06,1.2.06,6.16,0,12.31,0,18.47,0,.66,0,1.13.1,1.55.72,4.01,5.89,9.49,9.64,16.45,11.23.25.06.48.15.8.26,0,.36,0,.72,0,1.08,0,14.17.01,28.34,0,42.51,0,5.88-3.53,10.41-9.04,11.72-6.9,1.63-13.87-3.67-14.08-10.76-.08-2.8-.02-5.61-.03-8.41,0-1.79-.47-2.26-2.27-2.26-13.44,0-26.88,0-40.33,0-.47,0-.94,0-1.62,0Zm42.01-29.17c4.04,0,8.08,0,12.12,0,.33,0,.66.03.98-.04.88-.18,1.44-.71,1.44-1.65,0-.93-.51-1.49-1.41-1.67-.32-.06-.65-.06-.98-.06-8.08,0-16.15,0-24.23,0-.4,0-.81.01-1.19.11-.81.2-1.24.79-1.25,1.58-.01.8.42,1.39,1.22,1.61.38.1.79.11,1.19.11,4.04,0,8.08,0,12.12,0Zm.05,16.86c4.04,0,8.08,0,12.11,0,.29,0,.58.02.87-.02.91-.11,1.55-.81,1.51-1.69-.04-.92-.53-1.48-1.46-1.61-.29-.04-.58-.04-.87-.04-8.11,0-16.22,0-24.34,0-.33,0-.66,0-.98.05-.89.13-1.37.72-1.4,1.56-.04.91.46,1.51,1.36,1.72.31.07.65.04.98.04,4.07,0,8.15,0,12.22,0Zm-19.36-35.34c0-3.16-2.67-5.74-5.93-5.74-3.25,0-5.94,2.61-5.94,5.75,0,3.13,2.71,5.75,5.95,5.75,3.26,0,5.92-2.59,5.92-5.75Zm-5.92,27.84c-3.28,0-5.95,2.56-5.95,5.71,0,3.15,2.67,5.73,5.94,5.73,3.29,0,5.93-2.54,5.93-5.72,0-3.19-2.62-5.72-5.91-5.73Zm-.04-5.34c3.3.02,5.93-2.5,5.95-5.69.02-3.17-2.61-5.74-5.89-5.75-3.28-.01-5.95,2.54-5.97,5.69-.02,3.15,2.63,5.73,5.91,5.75Z"/><path class="cls-1" d="m64.34,24.47C63.81,11.69,74.16.57,87.09.02c13.03-.55,24.26,9.69,24.8,22.61.55,13.32-9.63,24.41-22.9,24.94-13.12.53-24.09-9.75-24.64-23.11Zm19.14-6.97c.01-2.38,1.83-4.31,4.21-4.46,2.54-.16,4.5,1.52,4.84,4.15.18,1.44.84,2.14,1.9,2.03,1.1-.11,1.67-1.04,1.48-2.48-.36-2.69-1.62-4.9-4.09-6.08-1.49-.71-2.66-1.26-2.4-3.24.11-.82-.66-1.34-1.54-1.37-.94-.03-1.5.49-1.71,1.37-.08.35-.09.73-.04,1.09.13.92-.18,1.37-1.11,1.73-3.97,1.53-5.96,5.99-4.46,9.97,1.26,3.34,3.8,4.97,7.32,5.31,1.03.1,2.16.47,3,1.06,1.65,1.16,2.09,3.48,1.27,5.31-.86,1.92-2.94,2.99-5.04,2.6-1.96-.36-3.45-2.04-3.64-4.11-.13-1.43-.77-2.11-1.89-2.01-1.08.1-1.62.97-1.47,2.36.28,2.64,1.47,4.83,3.82,6,1.6.8,2.52,1.55,2.26,3.48-.12.85.65,1.43,1.57,1.5.85.06,1.58-.58,1.71-1.5.06-.43.08-.88.04-1.31-.07-.76.16-1.13.96-1.38,3.25-1.03,5.43-4.03,5.47-7.39.05-4.41-3.32-7.84-7.91-8.06-2.69-.13-4.56-2.01-4.55-4.58Z"/><path class="cls-1" d="m32.41,39.12c-1.4,0-2.51-1.03-2.51-2.33,0-1.31,1.07-2.33,2.49-2.34,1.45-.02,2.61,1.05,2.58,2.38-.03,1.29-1.16,2.3-2.56,2.29Z"/><path class="cls-1" d="m29.9,70.38c-.02-1.3,1.06-2.37,2.45-2.41,1.42-.04,2.62,1.04,2.62,2.36,0,1.27-1.16,2.35-2.52,2.36-1.38.01-2.52-1.02-2.54-2.32Z"/><path class="cls-1" d="m32.27,55.92c-1.4-.08-2.43-1.17-2.37-2.48.06-1.28,1.25-2.3,2.62-2.24,1.43.06,2.55,1.23,2.44,2.54-.11,1.26-1.34,2.26-2.69,2.18Z"/></g></svg>