<?xml version="1.0" encoding="UTF-8"?><svg id="Layer_2" xmlns="http://www.w3.org/2000/svg" viewBox="0 0 103.35 103.39"><defs><style>.cls-1{fill:#fff;}</style></defs><g id="Layer_1-2"><path class="cls-1" d="m0,25.85h27.5v56.87h-1.18c-8.37,0-16.75,0-25.12,0-.4,0-.8.04-1.2.07,0-18.98,0-37.96,0-56.94Zm5.18,13.73c0,2.15-.01,4.31,0,6.46.01,1.61.6,2.21,2.19,2.21,4.27,0,8.54,0,12.82,0,1.58,0,2.21-.63,2.22-2.2,0-4.27,0-8.54,0-12.82,0-1.58-.61-2.19-2.2-2.2-4.27-.01-8.54-.01-12.82,0-1.62,0-2.19.57-2.2,2.19-.02,2.12,0,4.24,0,6.36Z"/><path class="cls-1" d="m0,93.09h27.47c.04.24.09.44.1.63,0,2.52.03,5.05,0,7.57-.02,1.47-.66,2.09-2.11,2.09-7.77,0-15.54,0-23.32.02-.99,0-1.66-.41-2.14-1.22v-9.09Z"/><path class="cls-1" d="m0,14.94c.57-.93,1.43-1.19,2.48-1.18,7.53.02,15.07,0,22.6.01,1.92,0,2.48.55,2.49,2.44,0,2.01,0,4.03,0,6.2H0v-7.47Z"/><path class="cls-1" d="m52.1,0c1,.42,1.35,1.22,1.33,2.26-.03,1.51,0,3.01,0,4.57h-22.34c0-1.82-.09-3.59.06-5.35.04-.52.76-.99,1.17-1.48,6.6,0,13.19,0,19.79,0Z"/><path class="cls-1" d="m0,86.22c.4-.02.8-.05,1.21-.05,8.34,0,16.69,0,25.03,0,.4,0,.8,0,1.26,0v3.45c-.47,0-.86,0-1.26,0-8.34,0-16.69,0-25.03,0-.4,0-.81.02-1.21.04,0-1.14,0-2.29,0-3.43Z"/><path class="cls-1" d="m53.47,82.67h-22.36V19.03h22.29v2.44c2.7-1.49,5.65-1.84,8.46-2.62,5.95-1.67,11.94-3.2,17.91-4.79,1.92-.51,2.57-.14,3.07,1.76.69,2.63,1.38,5.26,2.07,7.9.07.25.1.52.17.87-9.7,2.59-19.36,5.16-29.11,7.76-.77-2.94-1.53-5.81-2.29-8.69h-.2v59.02Z"/><path class="cls-1" d="m87.79,34.78c3.3,12.66,6.58,25.22,9.89,37.9-9.73,2.6-19.39,5.18-29.17,7.79-3.3-12.65-6.59-25.24-9.89-37.91,9.78-2.61,19.44-5.18,29.18-7.78Z"/><path class="cls-1" d="m72.09,94.22c9.73-2.59,19.38-5.17,29.17-7.78.32,1.19.62,2.34.93,3.49.36,1.36.72,2.73,1.06,4.09.34,1.38-.12,2.12-1.57,2.51-5.25,1.41-10.51,2.81-15.76,4.22-3.08.82-6.16,1.64-9.25,2.45-1.43.38-2.21-.04-2.59-1.43-.68-2.49-1.32-4.99-1.99-7.57Z"/><path class="cls-1" d="m53.33,93.12c.03.25.08.47.08.7,0,2.45.02,4.91,0,7.36-.01,1.6-.63,2.2-2.21,2.2-5.98,0-11.97,0-17.95,0-1.6,0-2.21-.59-2.22-2.17-.02-2.68,0-5.36,0-8.09h22.31Z"/><path class="cls-1" d="m98.54,76.02c.63,2.41,1.22,4.67,1.85,7.07-9.73,2.59-19.41,5.18-29.18,7.78-.62-2.37-1.22-4.66-1.85-7.08,9.73-2.59,19.38-5.17,29.17-7.78Z"/><path class="cls-1" d="m31.08,15.46v-5.07h22.27v5.07h-22.27Z"/><path class="cls-1" d="m86,27.9c.32,1.25.6,2.34.91,3.54-9.74,2.6-19.39,5.17-29.15,7.78-.31-1.19-.6-2.31-.93-3.54,9.76-2.6,19.41-5.18,29.17-7.78Z"/><path class="cls-1" d="m53.36,86.26v3.28h-22.25v-3.28h22.25Z"/></g></svg>