<?xml version="1.0" encoding="UTF-8"?><svg id="Layer_2" xmlns="http://www.w3.org/2000/svg" viewBox="0 0 92.93 92.94"><defs><style>.cls-1{fill:#fff;}</style></defs><g id="Layer_1-2"><path class="cls-1" d="m77.44,34.07h-1.29c-9.42,0-18.84,0-28.26,0-8.03,0-13.8,5.76-13.81,13.76,0,5.16.01,10.32-.02,15.49,0,.43-.17.98-.47,1.25-4.31,3.99-8.63,7.96-12.98,11.9-1.86,1.68-4.53,1-5.19-1.29-.12-.42-.13-.89-.13-1.34,0-3.52,0-7.03,0-10.55,0-.35,0-.69,0-1.14-2.03,0-3.96.01-5.89,0-4.87-.04-8.55-3.21-9.31-8-.08-.54-.08-1.09-.08-1.64C0,38.22,0,23.93,0,9.63,0,3.96,3.95,0,9.61,0,29,0,48.39,0,67.78,0c5.73,0,9.65,3.94,9.65,9.68,0,7.78,0,15.55,0,23.33,0,.32,0,.63,0,1.06Z"/><path class="cls-1" d="m83,83c0,2.24.06,4.33-.03,6.42-.04.79-.27,1.69-.72,2.33-1.06,1.52-3.08,1.59-4.59.24-2.45-2.2-4.98-4.32-7.25-6.69-1.72-1.8-3.57-2.42-6.04-2.34-5.51.18-11.03.07-16.55.05-3.57-.01-6.28-1.9-7.21-5.04-.22-.73-.32-1.52-.33-2.28-.02-9.36-.02-18.71-.01-28.07,0-4.27,3.05-7.33,7.31-7.34,12.68-.01,25.36-.01,38.04,0,4.26,0,7.29,3.07,7.3,7.35.01,9.32.01,18.65,0,27.97,0,4.25-2.91,7.24-7.18,7.39-.87.03-1.73,0-2.75,0Z"/></g></svg>