<?xml version="1.0" encoding="UTF-8"?><svg id="Layer_2" xmlns="http://www.w3.org/2000/svg" viewBox="0 0 90.43 90.43"><defs><style>.cls-1{fill:#fff;}</style></defs><g id="Layer_1-2"><path class="cls-1" d="m0,16.62c.16-.86.34-1.72.49-2.58.2-1.12.81-1.88,1.91-2.2,1.11-.32,2,.07,2.79.86,3.01,3.02,6.02,6.04,9.06,9.04.29.29.79.5,1.2.51,2.23.05,4.46.02,6.79.02,0-2.47.02-4.87-.02-7.27,0-.26-.3-.54-.52-.76-2.95-2.96-5.89-5.92-8.87-8.86-.86-.85-1.35-1.79-.97-3,.36-1.17,1.27-1.65,2.42-1.91,10.89-2.45,21.33,4.9,22.59,15.94.29,2.57.08,5.11-.74,7.58-.17.52-.1.85.29,1.23,9.6,9.58,19.19,19.17,28.77,28.77.38.38.69.49,1.23.33,11.04-3.41,22.17,3.64,23.78,15.06.34,2.38.24,4.75-.29,7.1-.24,1.07-.83,1.8-1.88,2.12-1.07.32-1.96-.02-2.73-.78-2.99-3-6-5.98-8.97-9-.48-.49-.96-.66-1.62-.65-2.14.03-4.29.01-6.54.01,0,1.6.14,3.17-.03,4.69-.23,2.03.47,3.44,1.97,4.81,2.61,2.37,5.01,4.97,7.53,7.44.85.84,1.27,1.78.92,2.94-.34,1.13-1.18,1.7-2.32,1.89-.87.14-1.72.32-2.59.48h-3.35c-.16-.05-.32-.13-.49-.15-11.5-1.3-18.96-12.61-15.56-23.65.2-.65.11-1.04-.38-1.53-9.46-9.42-18.9-18.86-28.32-28.33-.62-.62-1.11-.77-1.97-.51-9.63,2.88-19.81-2.63-22.69-12.26C.48,22.69.29,21.32,0,19.98,0,18.86,0,17.74,0,16.62Z"/><path class="cls-1" d="m0,75.77c.43-1.43.69-2.93,1.33-4.26.63-1.3,1.49-2.56,2.5-3.59,7.4-7.49,14.87-14.92,22.31-22.37.08-.08.17-.15.18-.16,6.23,6.22,12.44,12.43,18.7,18.7-.08.09-.26.3-.46.5-7.17,7.18-14.36,14.34-21.52,21.54-2.25,2.26-4.87,3.75-8.06,4.16-.11.01-.21.09-.32.13h-2.83c-.22-.06-.44-.13-.67-.17-1.85-.31-3.57-.94-5.39-2.16.35-.23.66-.36.88-.59,6.41-6.4,12.82-12.81,19.22-19.22.29-.29.59-.59.81-.93,1.11-1.73-.07-3.98-2.12-4.05-.95-.03-1.66.44-2.31,1.1-6.44,6.46-12.89,12.9-19.33,19.36-.22.22-.36.53-.62.93-.4-.72-.72-1.13-.88-1.59-.51-1.49-.95-3.01-1.42-4.51,0-.94,0-1.88,0-2.83Z"/><path class="cls-1" d="m56.6,37.77c-1.37-1.37-2.57-2.57-3.83-3.83.19-.2.4-.43.62-.65,3.56-3.56,7.12-7.1,10.65-10.68.36-.36.64-.92.72-1.43.58-3.75,1.09-7.5,1.62-11.25.14-.98.62-1.7,1.5-2.14,4.96-2.49,9.93-4.97,14.89-7.45,1.13-.56,2.19-.39,3.09.47,1.29,1.24,2.56,2.51,3.8,3.81.81.85.98,1.88.46,2.94-2.49,5.03-5,10.04-7.52,15.06-.43.85-1.16,1.3-2.1,1.43-3.75.53-7.51,1.05-11.25,1.62-.5.08-1.06.36-1.43.72-3.56,3.51-7.09,7.05-10.62,10.59-.23.23-.4.51-.61.8Z"/></g></svg>