<?xml version="1.0" encoding="UTF-8"?><svg id="Layer_2" xmlns="http://www.w3.org/2000/svg" viewBox="0 0 100.22 100.27"><defs><style>.cls-1{fill:#fff;}</style></defs><g id="Layer_1-2"><path class="cls-1" d="m10.57,100.27c-1.66-.62-3.46-1.02-4.97-1.9-4.25-2.47-6.33-7.4-5.38-12.15.94-4.71,5.03-8.57,9.84-9.26.83-.12,1.69-.17,2.53-.17,25.01,0,50.02.04,75.04-.04,6.86-.02,11.7,4.8,12.43,9.96.02.15.1.3.16.45v2.74c-.06.21-.14.42-.18.64-.71,3.55-2.6,6.32-5.76,8.06-1.42.78-3.08,1.13-4.63,1.68H10.57Zm7.24-11.79c-.02-1.59-1.36-2.9-2.95-2.9-1.59,0-2.91,1.34-2.92,2.92,0,1.62,1.37,2.98,2.99,2.95,1.59-.03,2.89-1.38,2.87-2.97Zm8.79,2.97c1.59.01,2.93-1.3,2.96-2.89.03-1.59-1.27-2.94-2.86-2.98-1.62-.04-3.01,1.31-3,2.93,0,1.59,1.32,2.92,2.91,2.93Zm14.7-2.97c-.02-1.59-1.36-2.9-2.95-2.9-1.59,0-2.91,1.34-2.92,2.92,0,1.62,1.38,2.98,3,2.94,1.59-.04,2.89-1.39,2.87-2.97Zm11.74.05c0-1.59-1.31-2.93-2.9-2.95-1.58-.02-2.94,1.29-2.97,2.87-.03,1.62,1.32,3,2.94,3,1.59,0,2.91-1.33,2.92-2.92Zm8.8,2.92c1.59,0,2.93-1.31,2.95-2.89.02-1.59-1.28-2.94-2.87-2.97-1.62-.04-3,1.32-3,2.94,0,1.59,1.33,2.92,2.92,2.93Zm11.75,0c1.59,0,2.93-1.31,2.95-2.89.02-1.59-1.28-2.94-2.87-2.97-1.62-.04-3,1.32-3,2.94,0,1.59,1.33,2.92,2.92,2.93Zm14.69-2.98c-.02-1.59-1.37-2.9-2.95-2.89-1.59.01-2.91,1.34-2.91,2.93,0,1.62,1.38,2.98,3,2.94,1.59-.04,2.89-1.39,2.86-2.98Z"/><path class="cls-1" d="m76.64,50.93c-.65.8-1.24,1.65-1.96,2.38-1.98,2.04-4,4.03-6.01,6.03-.22.22-.46.43-.84.78,0-2.78-.02-5.38.03-7.97,0-.29.3-.66.56-.85,1.99-1.42,2.66-3.3,2.39-5.72-.19-1.71,0-3.46-.06-5.18-.01-.43-.21-.96-.5-1.27-2.97-3.03-5.97-6.03-8.99-9-.3-.3-.83-.52-1.26-.52-6.59-.03-13.18-.03-19.77,0-.4,0-.9.19-1.18.47-3.05,3-6.07,6.02-9.06,9.07-.28.28-.49.77-.49,1.17-.04,2.64-.04,5.29,0,7.93,0,.4.21.94.5,1.16,2.09,1.5,2.76,3.48,2.44,6-.19,1.48-.03,2.99-.03,4.65-.28-.23-.48-.36-.65-.52-2.33-2.33-4.65-4.67-7-6.98-.79-.78-1.18-1.66-1.17-2.79.03-3.65.03-7.31,0-10.96,0-1.08.34-1.96,1.1-2.72,3.74-3.73,7.48-7.47,11.21-11.21.78-.79,1.67-1.21,2.79-1.16.81.04,1.62,0,2.47,0V5.9c-.33,0-.67,0-1.02,0-4.37,0-8.74,0-13.11,0-2.08,0-3.42-1.15-3.43-2.92-.01-1.78,1.34-2.95,3.4-2.95,15.23,0,30.47.02,45.7-.03,1.82,0,3.16.48,3.94,2.18v1.57c-.78,1.69-2.12,2.22-3.94,2.18-4.2-.09-8.41-.03-12.61-.03-.34,0-.68,0-1.02,0v17.82c.59,0,1.14.05,1.68,0,1.7-.19,2.97.46,4.15,1.68,3.24,3.35,6.58,6.6,9.86,9.92.7.7,1.26,1.54,1.89,2.31,0,4.44,0,8.88,0,13.31Z"/><path class="cls-1" d="m61.86,70.87h-23.64c-.02-.34-.04-.66-.04-.97,0-6.42,0-12.85,0-19.27,0-2.28,1.14-3.41,3.43-3.41,5.61,0,11.21,0,16.82,0,2.29,0,3.43,1.13,3.43,3.41,0,6.42,0,12.85,0,19.27v.97Z"/></g></svg>