<?xml version="1.0" encoding="UTF-8"?><svg id="Layer_2" xmlns="http://www.w3.org/2000/svg" viewBox="0 0 106.6 107.97"><defs><style>.cls-1{fill:#fff;}</style></defs><g id="Layer_1-2"><path class="cls-1" d="m47.79,10.7c-.24.55-.39,1.05-.64,1.48-.98,1.68-1.99,3.33-2.98,5-.83,1.39-.02,3.38,1.52,3.76,1.92.48,3.84.95,5.75,1.44,1.37.35,1.82.93,1.83,2.36.01,1.27.01,2.54,0,3.8-.01,1.43-.46,2.02-1.83,2.37-1.95.5-3.92.98-5.87,1.47-1.38.35-2.22,2.4-1.48,3.64,1.01,1.7,2.04,3.39,3.05,5.09.77,1.29.68,2.01-.36,3.07-.83.85-1.68,1.69-2.52,2.52-1.18,1.17-1.85,1.25-3.25.41-1.73-1.04-3.46-2.08-5.2-3.11-1.01-.59-3.14.3-3.42,1.44-.51,1.99-.98,3.99-1.49,5.99-.35,1.39-.93,1.84-2.35,1.85-1.31.01-2.62.01-3.92,0-1.34-.02-1.93-.48-2.26-1.8-.51-1.99-.98-3.99-1.49-5.99-.31-1.22-2.41-2.1-3.5-1.46-1.74,1.03-3.46,2.08-5.2,3.11-1.35.8-2.03.7-3.15-.42-.87-.86-1.75-1.73-2.6-2.61-.99-1.01-1.07-1.74-.34-2.97,1.03-1.74,2.08-3.46,3.12-5.19.68-1.14-.18-3.26-1.46-3.58-1.96-.49-3.92-.96-5.87-1.46C.45,30.56.02,29.99,0,28.48c0-1.27-.01-2.54,0-3.8.01-1.35.47-1.96,1.77-2.29,1.95-.5,3.92-.97,5.87-1.46,1.44-.36,2.27-2.41,1.5-3.71-1.02-1.7-2.04-3.39-3.05-5.09-.73-1.23-.64-1.96.35-2.97.89-.91,1.79-1.8,2.69-2.69,1.02-1,1.75-1.11,2.97-.39,1.77,1.04,3.53,2.12,5.3,3.17,1.08.64,3.19-.24,3.49-1.46.5-1.99.98-4,1.49-5.99C22.72.49,23.31.02,24.65,0c1.35-.02,2.69.01,4.04,0,1.22-.02,1.92.6,2.2,1.74.5,2,.98,3.99,1.48,5.99.33,1.3,2.4,2.18,3.55,1.5,1.7-1.01,3.4-2.03,5.09-3.05,1.4-.84,2.07-.76,3.25.41.9.89,1.82,1.77,2.68,2.7.35.39.55.91.84,1.41Zm-21.16,4.53c-6.29,0-11.41,5.14-11.4,11.43,0,6.28,5.15,11.41,11.43,11.4,6.28,0,11.41-5.14,11.4-11.43,0-6.29-5.14-11.41-11.43-11.4Z"/><path class="cls-1" d="m57.09,26.66c0-4.91,0-9.83,0-14.74,0-3.25,2.24-4.92,5.38-4.01,8.01,2.33,16.02,4.69,24.04,7,.79.23,1.04.54,1.04,1.37-.04,6.9-.04,13.79,0,20.69,0,.89-.29,1.2-1.11,1.43-7.98,2.29-15.95,4.64-23.93,6.96-3.21.93-5.42-.74-5.42-4.08,0-4.88,0-9.75,0-14.63Z"/><path class="cls-1" d="m91.39,38.03V15.43c3.11,0,6.21-.29,9.23.08,3.41.42,5.85,3.59,5.93,7.04.06,2.73.07,5.47,0,8.2-.1,3.78-3.08,7.01-6.86,7.25-2.72.17-5.45.03-8.29.03Z"/><path class="cls-1" d="m95.16,53.25h-7.6c1.28-3.84,2.53-7.6,3.78-11.35h7.6c-1.28,3.84-2.53,7.6-3.78,11.35Z"/><path class="cls-1" d="m26.69,19.04c4.2.02,7.6,3.46,7.57,7.68-.03,4.19-3.5,7.58-7.71,7.54-4.14-.04-7.51-3.47-7.51-7.62,0-4.2,3.44-7.61,7.65-7.6Z"/><path class="cls-1" d="m30.19,107.97c8.88-7.79,17.61-15.46,26.39-23.16,1.58,1.38,3.11,2.71,4.64,4.03,1.29,1.12,2.58,2.25,3.87,3.37,1.44,1.25,1.96,1.25,3.43-.02,2.83-2.44,5.66-4.88,8.58-7.4,8.86,7.68,17.72,15.35,26.74,23.17H30.19Z"/><path class="cls-1" d="m26.89,58.9c9.13,7.97,18.03,15.74,27.05,23.6-8.96,7.86-17.87,15.69-27,23.7-.11-.79-.27-1.38-.27-1.98-.02-7.82-.01-15.65-.01-23.47,0-6.58,0-13.16,0-19.73,0-.62.13-1.24.23-2.12Z"/><path class="cls-1" d="m106.57,59.39v46.34c-9.02-7.81-17.87-15.48-26.81-23.23,8.92-7.69,17.78-15.32,26.81-23.11Z"/><path class="cls-1" d="m90.78,68.4c4.34-3.74,8.69-7.49,13.06-11.25h-.07s.04-.04.07-.06H30.19s.07.06.11.1c-.02,0-.04,0-.06.01,4.55,3.97,9.07,7.91,13.59,11.86,4.25,3.73,8.49,7.45,12.74,11.18.01-.01.02-.02.04-.03,3.39,2.96,6.78,5.91,10.17,8.87,3.43-2.96,6.85-5.91,10.28-8.86.01.01.02.02.04.03,4.56-3.95,9.11-7.9,13.69-11.86Z"/></g></svg>