<?xml version="1.0" encoding="UTF-8"?><svg id="Layer_2" xmlns="http://www.w3.org/2000/svg" viewBox="0 0 99.29 99.31"><defs><style>.cls-1{fill:#fff;}</style></defs><g id="Layer_1-2"><path class="cls-1" d="m62.25,99.31H19.39c-.68-.19-1.37-.35-2.03-.57-3.31-1.09-5.88-4.79-5.61-8.08,7.74-.49,11.38-6.46,11.51-11.26.08-2.85-.73-5.43-2.51-7.66-2.31-2.89-5.39-4.31-9.05-4.46v-5.75c6.8-.3,11.05-5.29,11.53-10.68.24-2.73-.41-5.28-1.98-7.53-2.31-3.32-5.57-4.96-9.57-5.15v-6.08c8.06-.53,11.56-6.84,11.61-11.63.05-4.8-3.46-11.31-11.81-11.85.35-1.24.52-2.51,1.05-3.6C14.2,1.56,17.11,0,20.9,0,37.45,0,53.99,0,70.54,0c4.52,0,9.05,0,13.57,0,5.39,0,9.43,4.29,9.4,9.47-.12,15.51-.04,31.03-.04,46.55,0,.34,0,.67,0,1.14-.4-.23-.65-.37-.89-.51-5.96-3.48-12.36-4.78-19.11-3.33-9.93,2.13-16.66,8.15-19.85,17.78-2.34,7.05-1.51,13.96,2.11,20.49,1.67,3.01,3.94,5.5,6.52,7.73ZM37.81,22.02c-.27-.25-.51-.46-.74-.68-1.28-1.27-2.54-2.58-3.85-3.82-1.24-1.17-2.96-1.14-4.09-.01-1.13,1.13-1.19,2.88,0,4.09,2.18,2.25,4.4,4.47,6.64,6.65,1.23,1.19,2.86,1.2,4.08,0,3.91-3.86,7.78-7.75,11.65-11.65.75-.76,1.03-1.7.74-2.76-.62-2.26-3.24-2.9-4.99-1.18-2.9,2.85-5.76,5.75-8.64,8.62-.25.25-.51.48-.8.75Zm.04,23.71c-.28-.26-.51-.47-.73-.68-1.24-1.23-2.43-2.51-3.72-3.67-.52-.47-1.23-.86-1.92-.99-1.24-.24-2.4.48-2.93,1.59-.54,1.13-.33,2.38.65,3.38,2.01,2.05,4.06,4.07,6.09,6.1,1.76,1.75,3.26,1.76,5,.03,3.59-3.58,7.17-7.17,10.76-10.76.25-.25.51-.5.71-.79,1.2-1.63.47-3.85-1.46-4.47-1.3-.42-2.32.08-3.22.99-3.05,3.07-6.1,6.13-9.23,9.28Zm.03,23.4c-1.62-1.64-3.04-3.1-4.49-4.52-1.31-1.29-3.05-1.34-4.24-.19-1.22,1.18-1.18,2.97.14,4.3,2.08,2.12,4.18,4.22,6.3,6.3,1.41,1.39,3.03,1.38,4.44-.02,3.78-3.76,7.55-7.52,11.3-11.31,1.3-1.31,1.34-3.04.16-4.23-1.2-1.22-2.95-1.17-4.3.16-2.55,2.52-5.08,5.06-7.61,7.6-.57.57-1.08,1.19-1.72,1.91Zm31.9-45.85c2.78,0,5.56,0,8.34,0,1.98,0,3.3-1.16,3.32-2.88.02-1.73-1.31-2.93-3.27-2.93-5.59,0-11.18,0-16.77,0-1.9,0-3.2,1.19-3.22,2.88-.02,1.73,1.31,2.93,3.27,2.93,2.78,0,5.56,0,8.34,0Zm-.07,23.66c2.81,0,5.62,0,8.44,0,1.97,0,3.29-1.18,3.29-2.91,0-1.73-1.32-2.91-3.29-2.91-5.56,0-11.12,0-16.68,0-1.97,0-3.29,1.18-3.29,2.91,0,1.73,1.32,2.9,3.29,2.91,2.75,0,5.49,0,8.24,0Z"/><path class="cls-1" d="m76.6,99.31c-1.56-.38-3.17-.62-4.67-1.15-11.18-3.98-16.55-15.84-12.23-26.9,3.36-8.61,12.93-14.08,22.04-12.38,8.89,1.66,14.63,6.91,17.03,15.69.22.8.35,1.63.52,2.44v3.88c-.17.81-.31,1.63-.52,2.44-1.89,7.33-6.45,12.25-13.53,14.82-1.53.55-3.17.79-4.76,1.17h-3.88Zm4.85-23.27c0-1.04.02-1.97,0-2.9-.05-1.67-1.3-2.91-2.88-2.92-1.59-.01-2.88,1.22-2.91,2.88-.04,1.94-.04,3.88,0,5.81.03,1.71,1.24,2.9,2.96,2.93,1.9.03,3.81.03,5.71,0,1.67-.03,2.92-1.27,2.94-2.86.02-1.62-1.24-2.89-2.95-2.94-.9-.03-1.8,0-2.86,0Z"/><path class="cls-1" d="m8.81,14.55c.94,0,1.87-.03,2.81,0,3.3.11,5.8,2.59,5.82,5.78.02,3.21-2.51,5.76-5.86,5.84-1.9.04-3.81.04-5.71,0C2.52,26.1-.01,23.56,0,20.35c.01-3.22,2.54-5.71,5.91-5.8.97-.02,1.94,0,2.9,0Z"/><path class="cls-1" d="m8.64,55.67c-.94,0-1.87.02-2.81,0C2.53,55.56.03,53.08,0,49.89c-.03-3.21,2.5-5.77,5.85-5.85,1.9-.05,3.81-.04,5.71,0,3.35.07,5.89,2.6,5.88,5.82,0,3.22-2.54,5.72-5.9,5.8-.97.02-1.94,0-2.9,0Z"/><path class="cls-1" d="m8.65,84.76c-.97,0-1.94.03-2.9,0C2.46,84.62-.03,82.07,0,78.9c.03-3.15,2.49-5.65,5.74-5.76,2-.06,4-.07,6,0,3.24.11,5.7,2.65,5.7,5.79,0,3.14-2.45,5.66-5.69,5.81-1.03.05-2.06,0-3.1,0h0Z"/></g></svg>