<?xml version="1.0" encoding="UTF-8"?><svg id="Layer_2" xmlns="http://www.w3.org/2000/svg" viewBox="0 0 101.52 101.46"><defs><style>.cls-1{fill:#fff;}</style></defs><g id="Layer_1-2"><path class="cls-1" d="m89,86.88c-.48-.5-.84-.84-1.15-1.21-1.24-1.48-1.13-3.59.24-4.92,1.33-1.3,3.47-1.45,4.83-.15,2.62,2.5,5.18,5.06,7.68,7.68,1.27,1.33,1.21,3.39-.09,4.74-2.44,2.52-4.92,5.01-7.44,7.45-1.44,1.4-3.62,1.31-5-.06-1.42-1.41-1.45-3.58-.04-5.09.28-.3.63-.53.94-.8-.04-.1-.08-.2-.12-.31-.43,0-.85,0-1.28,0-27.78,0-55.55,0-83.33.01-1.8,0-3.2-.57-3.94-2.26-1.05-2.41.74-4.98,3.47-4.99,6-.02,12,0,18,0,1.53,0,3.06,0,4.87,0-.46-.36-.68-.54-.91-.71-8.63-6.21-14.31-14.44-17.09-24.7-.15-.55-.46-1.12-.86-1.52-2.1-2.17-4.26-4.28-6.39-6.42-1.72-1.72-1.85-3.89-.35-5.42,1.5-1.53,3.68-1.43,5.42.25.21.21.43.41.76.72.24-1.96.34-3.79.7-5.58,3.6-17.92,14.18-29.51,31.65-34.85.75-.23,1.52-.66,2.09-1.2,2.1-2,4.13-4.09,6.18-6.14,1.73-1.72,3.88-1.86,5.42-.36,1.54,1.5,1.44,3.68-.24,5.42-.21.21-.41.43-.76.79,1.47.15,2.75.27,4.04.42,17.17,2.06,31.94,14.92,36.33,31.68.27,1.03.73,1.83,1.5,2.57,1.98,1.91,3.91,3.88,5.85,5.83,1.79,1.8,1.97,3.94.45,5.5-1.53,1.57-3.69,1.44-5.5-.31-.19-.18-.38-.36-.77-.72-.35,7.11-2.11,13.62-5.49,19.66-3.37,6.02-7.93,10.97-13.83,15.01h14.13ZM14.47,48.77c.12.04.24.07.36.11.18-.17.36-.34.54-.51,1.69-1.61,3.85-1.68,5.34-.18,1.48,1.5,1.38,3.67-.26,5.34-1.46,1.48-2.91,2.96-4.41,4.39-.5.48-.59.9-.43,1.58,4.03,17.01,20.84,29.02,38.23,27.31,15.82-1.56,28.49-12.48,32.1-27.75.49-2.09.71-4.25,1.05-6.38-.11-.03-.22-.07-.33-.1-.16.14-.32.28-.47.43-1.77,1.68-3.92,1.78-5.42.25-1.5-1.53-1.36-3.69.35-5.42,1.44-1.45,2.86-2.91,4.33-4.31.51-.48.61-.91.42-1.58-3.88-13.7-12.67-22.49-26.37-26.3-2.21-.61-4.54-.81-6.81-1.19-.04.12-.07.24-.11.36.17.18.34.36.52.54,1.61,1.69,1.67,3.86.17,5.34-1.51,1.48-3.67,1.37-5.34-.27-1.48-1.46-2.96-2.91-4.39-4.41-.48-.5-.91-.61-1.58-.42-13.7,3.88-22.49,12.67-26.3,26.37-.61,2.21-.81,4.54-1.19,6.81Z"/><path class="cls-1" d="m29.06,39.83c3.33-1.73,6.47-3.36,9.6-4.99,3.41-1.77,6.82-3.54,10.22-5.33,1.19-.62,2.35-.71,3.56-.08,6.45,3.35,12.9,6.7,19.35,10.05.16.08.3.2.57.37-.4.23-.7.43-1.02.59-6.53,3.27-13.07,6.53-19.59,9.82-.71.36-1.26.36-1.97,0-6.49-3.28-12.99-6.52-19.5-9.77-.33-.17-.66-.35-1.21-.65Z"/><path class="cls-1" d="m29.01,43.85c.55.24.96.41,1.36.6,5.84,2.88,11.68,5.79,17.54,8.63.81.39,1.05.84,1.05,1.72-.04,7.01-.02,14.03-.02,21.18-.34-.14-.61-.21-.86-.34-5.65-2.92-11.3-5.86-16.96-8.77-1.29-.67-2.08-1.69-2.09-3.12-.04-6.56-.02-13.12-.02-19.89Z"/><path class="cls-1" d="m72.48,43.85c0,6.76.02,13.32-.01,19.89,0,1.34-.68,2.39-1.88,3.02-5.81,3.03-11.64,6.04-17.46,9.05-.13.07-.28.09-.51.17-.02-.38-.06-.7-.06-1.02,0-6.75,0-13.5-.02-20.26,0-.78.21-1.18.94-1.54,5.93-2.88,11.83-5.82,17.74-8.74.36-.18.73-.33,1.26-.56Z"/></g></svg>