<?xml version="1.0" encoding="UTF-8"?><svg id="Layer_2" xmlns="http://www.w3.org/2000/svg" viewBox="0 0 101.59 88.89"><defs><style>.cls-1{fill:#fff;}</style></defs><g id="Layer_1-2"><path class="cls-1" d="m101.59,27.78v2.58c-.34,1.3-.58,2.63-1.03,3.9-3.75,10.65-16.72,13.6-24.62,5.61-.46-.46-.87-.96-1.35-1.5-3.09,3.87-6.99,6.06-11.9,6.06-4.91,0-8.8-2.21-11.89-6.08-3.09,3.87-6.98,6.07-11.89,6.08-4.94,0-8.85-2.23-11.89-6.03-.15.13-.21.16-.25.21-.22.25-.42.51-.64.76-2.13,2.39-4.72,4.04-7.86,4.7-6.8,1.41-13.34-1.76-16.44-7.99-1.39-2.79-2.3-5.76-1.55-8.9,1.77-7.35,3.65-14.67,5.49-22C6.59,1.86,8.96,0,12.37,0c25.62,0,51.24,0,76.87,0,3.41,0,5.77,1.85,6.6,5.15,1.27,5.02,2.51,10.06,3.78,15.08.64,2.52,1.32,5.03,1.98,7.54Z"/><path class="cls-1" d="m38.08,63.56v25.32c-.43,0-.78,0-1.13,0-7.84,0-15.67,0-23.51,0-4.48,0-7.08-2.59-7.08-7.07,0-10.61,0-21.23,0-31.84,0-.33,0-.66,0-1.07,1.13.38,2.16.79,3.23,1.08,5.82,1.6,11.32.79,16.46-2.35.68-.41,1.12-.44,1.84-.03,7.33,4.16,14.7,4.16,22.03-.01.67-.38,1.09-.38,1.76,0,7.37,4.18,14.76,4.17,22.12-.04.59-.33.97-.4,1.58-.03,6,3.68,12.3,4.26,18.88,1.69.22-.08.43-.17.65-.24.06-.02.13-.02.28-.03.02.28.06.55.06.83,0,10.75,0,21.49,0,32.24,0,4.22-2.66,6.87-6.88,6.87-7.97,0-15.94,0-23.9,0h-.94v-25.32h-25.44Z"/></g></svg>