<?xml version="1.0" encoding="UTF-8"?><svg id="Layer_2" xmlns="http://www.w3.org/2000/svg" viewBox="0 0 103.37 103.37"><defs><style>.cls-1{fill:#fff;}</style></defs><g id="Layer_1-2"><path class="cls-1" d="m103.37,10.9c-.27,2.23-.46,4.47-.83,6.68-.42,2.47-1,4.92-1.51,7.35-10.85-.59-21.88-11.64-22.64-22.4,3.11-.64,6.25-1.33,9.4-1.91C89.47.32,91.18.2,92.87,0c2.09,0,4.17,0,6.26,0,.29.05.58.13.87.16,2.04.18,3.07,1.21,3.2,3.22.02.36.11.71.17,1.06v6.46Z"/><path class="cls-1" d="m52.09,80.46c-2.28-2.28-4.53-4.49-6.72-6.76-.18-.19-.13-.74-.01-1.06.79-2.24,1.25-4.53,1.1-6.92-.33-5.38-4.17-9.01-9.56-8.79-2.05.08-4.09.65-6.11,1.09-.61.13-1.01.2-1.49-.3-1.84-1.91-3.73-3.78-5.63-5.64-.42-.41-.54-.7-.19-1.27,7.07-11.54,15.33-22.09,25.53-31.05,6.81-5.98,14.26-10.99,22.64-14.55.24-.1.49-.19.64-.25,3.67,13.99,12.43,22.71,26.7,26.16-1.39,2.8-2.68,5.72-4.23,8.49-5.38,9.66-12.63,17.79-20.88,25.07-6.72,5.94-14.01,11.1-21.79,15.79Zm29.6-43.64c.02-8.32-6.84-15.18-15.15-15.16-8.33.02-15.05,6.74-15.1,15.09-.05,8.38,6.68,15.15,15.07,15.17,8.37.03,15.15-6.73,15.18-15.1Z"/><path class="cls-1" d="m36.07,62.9c3.1-.07,4.41,1.13,4.4,3.62,0,3.25-1.23,6.09-3.48,8.35-5.69,5.74-11.68,11.14-18.74,15.21-.55.32-1.11.63-1.69.9-1.34.63-2.71.42-3.64-.52-.93-.94-1.21-2.35-.45-3.63,1.66-2.8,3.23-5.7,5.25-8.23,3.29-4.12,6.84-8.03,10.42-11.9,2.25-2.43,5.21-3.6,7.92-3.81Z"/><path class="cls-1" d="m27.75,33.76c-.23.34-.41.61-.6.87-4.15,5.51-7.9,11.28-11.31,17.28-.39.69-.73.94-1.62.83-3-.38-5.96.15-8.88.84-.65.15-1.31.3-1.97.4-1.27.19-2.26-.35-2.9-1.39-.65-1.05-.64-2.16.08-3.22.11-.17.21-.35.36-.49,3.63-3.55,7.15-7.22,10.92-10.61,3.05-2.73,6.75-4.39,10.83-5.03,1.69-.26,3.4-.32,5.1.52Z"/><path class="cls-1" d="m69.82,76.07c.13,1.12.41,2.2.34,3.27-.31,5.2-2.39,9.71-5.88,13.5-3.01,3.26-6.22,6.34-9.37,9.47-1.12,1.11-2.38,1.35-3.59.73-1.29-.65-1.84-1.75-1.67-3.16.27-2.34.63-4.66.86-7,.12-1.23,0-2.48.05-3.72.01-.33.17-.82.42-.96,6.36-3.65,12.51-7.64,18.41-12,.05-.04.13-.04.44-.13Z"/><path class="cls-1" d="m41.66,78.9c1.59,1.59,3.2,3.2,4.88,4.87-3.06,1.58-6.15,3.26-9.3,4.78-1.55.75-2.8.19-4.24-1.58,2.91-2.71,5.82-5.42,8.66-8.08Z"/><path class="cls-1" d="m16.41,70.35c-1.49-1.06-2.06-2.43-1.34-3.95,1.52-3.17,3.16-6.27,4.73-9.35,1.6,1.61,3.13,3.15,4.63,4.66-2.6,2.8-5.31,5.71-8.02,8.64Z"/><path class="cls-1" d="m57.5,36.85c-.04-5,4.12-9.17,9.08-9.13,4.96.05,9.04,4.14,9.04,9.08,0,4.96-4.07,9.04-9.05,9.05-4.98.02-9.04-4.01-9.07-9.01Z"/></g></svg>