<?xml version="1.0" encoding="UTF-8"?><svg id="Layer_2" xmlns="http://www.w3.org/2000/svg" viewBox="0 0 120.27 81.34"><defs><style>.cls-1{fill:#fff;}</style></defs><g id="Layer_1-2"><path class="cls-1" d="m0,73.79C0,51.63,0,29.47,0,7.32c.07-.09.16-.17.19-.28C1.53,2.31,4.58,0,9.56,0c32.8,0,65.59,0,98.39,0,1.21,0,2.43-.02,3.64.01,4.83.12,8.65,3.88,8.66,8.7.03,21.29.03,42.58,0,63.87,0,3.45-1.63,6.17-4.72,7.67-1.45.7-3.22,1.03-4.85,1.03-33.7.06-67.4.04-101.09.04-.35,0-.7,0-1.06-.01-3.72-.12-6.93-2.54-8.08-6.09C.29,74.75.15,74.27,0,73.79ZM21.58,24.42c-2.5,0-5-.01-7.5,0-1.88.01-2.83.95-2.85,2.81-.02,3.56-.02,7.11,0,10.67.01,1.87.93,2.87,2.79,2.88,5,.04,10.01.04,15.01,0,1.9-.01,2.87-1.04,2.88-2.95.02-3.48.02-6.96,0-10.44-.01-2.03-.99-2.98-3.06-2.99-2.42-.01-4.85,0-7.27,0Zm13.51,45.22c6.77,0,13.54,0,20.31,0,.43,0,.86,0,1.29-.04,1.26-.15,2.21-1.2,2.25-2.46.04-1.2-.8-2.29-2-2.55-.45-.1-.93-.11-1.4-.11-13.66,0-27.31,0-40.97,0-.43,0-.87,0-1.28.09-1.29.26-2.09,1.29-2.05,2.61.05,1.53,1.13,2.46,2.96,2.46,6.97.01,13.93,0,20.9,0Zm57.22-49.35c.98,0,1.96,0,2.93,0,3.68,0,7.36.02,11.03-.01,1.89-.02,3.06-1.4,2.71-3.13-.26-1.29-1.34-2.04-3.02-2.04-9.04,0-18.08,0-27.11,0-.35,0-.71.03-1.05.11-1.38.33-2.16,1.48-1.97,2.89.18,1.37,1.2,2.17,2.86,2.18,4.54.01,9.08,0,13.62,0Zm-26.12,37.84c1.84,0,3.68.02,5.52,0,1.86-.02,2.99-1.01,2.99-2.57,0-1.56-1.14-2.59-2.98-2.6-3.72-.02-7.44-.02-11.16,0-1.79.01-2.99,1.14-2.95,2.66.04,1.5,1.18,2.5,2.94,2.52,1.88.02,3.76,0,5.64,0Zm-46.45,0c1.92,0,3.83.02,5.75,0,1.7-.03,2.76-1.02,2.79-2.52.03-1.53-1.08-2.63-2.81-2.64-3.8-.04-7.59-.03-11.39,0-1.76.01-2.85,1.06-2.84,2.61,0,1.55,1.08,2.54,2.86,2.56,1.88.03,3.76,0,5.63,0Zm23.15,0c1.92,0,3.84.02,5.75,0,1.78-.03,2.85-1.03,2.84-2.58,0-1.54-1.1-2.57-2.87-2.59-3.8-.03-7.59-.03-11.39,0-1.72.02-2.83,1.14-2.79,2.67.04,1.49,1.11,2.47,2.81,2.5,1.88.03,3.76,0,5.63,0Zm46.45,0c1.88,0,3.76.02,5.64,0,1.76-.02,2.91-1.02,2.95-2.51.04-1.52-1.16-2.65-2.94-2.66-3.76-.03-7.52-.03-11.27,0-1.74.01-2.88,1.09-2.89,2.59,0,1.5,1.14,2.55,2.88,2.58,1.88.03,3.76,0,5.64,0Z"/></g></svg>