<?xml version="1.0" encoding="UTF-8"?><svg id="Layer_2" xmlns="http://www.w3.org/2000/svg" viewBox="0 0 115.66 112.98"><defs><style>.cls-1{fill:#fff;}</style></defs><g id="Layer_1-2"><path class="cls-1" d="m26.11,10.41c1.15.16,3,.35,4.83.68,3.52.64,6.21-.36,7.95-3.63.91-1.72,1.93-3.4,3.05-4.98,1.94-2.73,3.8-3.14,6.71-1.53,1.51.84,2.98,1.78,4.36,2.82,3.24,2.45,6.39,2.48,9.63.01,1.38-1.05,2.85-1.99,4.36-2.83,2.92-1.63,4.78-1.23,6.71,1.5,1.15,1.62,2.17,3.35,3.12,5.09,1.71,3.15,4.32,4.13,7.75,3.57,2.09-.34,4.21-.61,6.32-.69,2.54-.09,3.89.97,4.46,3.46.4,1.76.49,3.6.71,5.4.11.9.18,1.81.31,2.71.32,2.14,1.44,3.71,3.49,4.48,1.86.7,3.77,1.28,5.66,1.91,4.73,1.59,5.68,3.58,3.97,8.28-.69,1.91-1.42,3.81-2.02,5.75-.6,1.93-.18,3.71,1.22,5.18,1.1,1.16,2.28,2.26,3.42,3.39.52.52,1.07,1.02,1.57,1.56,2.63,2.84,2.66,5.01,0,7.82-1.25,1.32-2.57,2.58-3.94,3.79-2.54,2.24-3.08,4.87-1.84,7.97.73,1.85,1.47,3.71,2.03,5.61.94,3.18.1,4.96-2.94,6.23-1.76.73-3.6,1.25-5.4,1.85-4.05,1.34-5.15,2.78-5.48,7.05-.14,1.81-.26,3.64-.55,5.43-.5,3.14-1.96,4.37-5.16,4.24-1.9-.07-3.79-.38-5.67-.66-4.11-.6-5.75.13-7.93,3.64-1.05,1.69-2,3.46-3.15,5.08-1.85,2.59-3.73,3.02-6.51,1.49-1.66-.92-3.26-1.98-4.8-3.1-3.02-2.2-5.95-2.21-8.98,0-1.54,1.12-3.14,2.18-4.8,3.1-2.78,1.54-4.66,1.13-6.52-1.46-1.18-1.65-2.23-3.41-3.2-5.2-1.71-3.15-4.33-4.12-7.75-3.57-2.09.34-4.21.62-6.32.69-2.54.09-3.94-.96-4.45-3.47-.5-2.5-.69-5.06-.95-7.59-.28-2.72-1.73-4.46-4.28-5.31-1.6-.53-3.21-1.05-4.81-1.58-.45-.15-.9-.31-1.34-.49-3.32-1.39-4.19-3.13-3.15-6.58.5-1.65,1.11-3.28,1.8-4.87,1.5-3.47.92-6.38-2.02-8.84-1.26-1.05-2.44-2.22-3.57-3.42-2.65-2.8-2.66-5.03-.01-7.81,1.4-1.48,2.9-2.86,4.38-4.26,2.05-1.95,2.55-4.24,1.57-6.87-.59-1.58-1.2-3.15-1.74-4.75-.32-.94-.58-1.91-.75-2.88-.32-1.82.34-3.31,1.98-4.15,1.41-.73,2.94-1.23,4.43-1.8.73-.28,1.49-.46,2.22-.71,4.12-1.42,5.17-2.82,5.49-7.19.12-1.73.25-3.46.52-5.17.52-3.3,1.95-4.44,6.02-4.39Zm67.23,46.06c-.02-19.61-15.93-35.5-35.52-35.48-19.61.02-35.5,15.92-35.49,35.51.01,19.6,15.93,35.5,35.52,35.49,19.6-.02,35.51-15.93,35.49-35.52Z"/><path class="cls-1" d="m46.44,72.17c.45-2.65.82-5.31,1.38-7.94.44-2.08-.04-3.69-1.65-5.11-1.88-1.67-3.65-3.47-5.4-5.27-.34-.35-.65-1.05-.52-1.43.14-.39.81-.75,1.29-.83,2.52-.42,5.05-.8,7.59-1.09,1.96-.22,3.26-1.11,4.07-2.94,1.04-2.33,2.21-4.61,3.4-6.87.24-.46.82-.98,1.29-1.03.36-.04.94.55,1.17.99,1.2,2.3,2.38,4.62,3.45,6.99.78,1.72,2.01,2.61,3.86,2.83,2.54.3,5.07.67,7.59,1.09.53.09,1.35.44,1.43.81.1.48-.26,1.22-.65,1.63-1.81,1.87-3.66,3.7-5.58,5.46-1.38,1.26-1.69,2.72-1.37,4.47.48,2.55.92,5.12,1.3,7.69.07.48-.06,1.22-.38,1.47-.32.25-1.08.18-1.51-.03-2.37-1.18-4.71-2.4-7.02-3.68-1.59-.88-3.07-.91-4.67,0-2.34,1.31-4.74,2.53-7.13,3.75-1.06.54-1.93.09-1.94-.96Z"/></g></svg>