<?xml version="1.0" encoding="UTF-8"?><svg id="Layer_2" xmlns="http://www.w3.org/2000/svg" viewBox="0 0 105.39 105.43"><defs><style>.cls-1{fill:#fff;}</style></defs><g id="Layer_1-2"><path class="cls-1" d="m102.91,96.76c-5.51-5.6-11.09-11.13-16.65-16.68-.27-.26-.58-.48-.9-.73,9.57-12.07,13.17-25.56,10.27-40.53-2.34-12.07-8.66-21.84-18.51-29.2C57.28-5.23,29.65-2.63,12.79,15.65c-16.79,18.19-17.16,46.18-.41,64.94,16.3,18.26,45.42,22.3,66.82,4.88.25.24.53.48.78.74,5.53,5.53,11.04,11.08,16.61,16.57,1.02,1.01,2.3,1.76,3.45,2.63h1.85c1.74-.59,2.92-1.74,3.5-3.5v-1.85c-.82-1.11-1.53-2.34-2.49-3.31ZM49.04,25.49c6.07,0,10.99,4.97,10.97,11.06-.02,6.03-4.98,10.95-11.02,10.94-6.07,0-10.99-4.98-10.97-11.06.02-6.03,4.97-10.95,11.02-10.94Zm15.34,48.37h-30.73c-.01-.16-.03-.29-.03-.42,0-3.6-.06-7.2.02-10.79.11-4.95,2.18-8.95,6.08-12.01.83-.65,1.67-.68,2.63-.3,1.44.57,2.92,1.03,4.46,1.57v3.23c0,2.52,0,5.04,0,7.56,0,1.39.94,2.39,2.21,2.38,1.27,0,2.19-1,2.19-2.4,0-3.39,0-6.78,0-10.17v-.57c1.71-.62,3.31-1.22,4.93-1.76.77-.26,1.48-.07,2.13.43,3.69,2.85,5.83,6.6,6.07,11.24.2,3.97.04,7.97.04,12.01Z"/></g></svg>