<?xml version="1.0" encoding="UTF-8"?><svg id="Layer_2" xmlns="http://www.w3.org/2000/svg" viewBox="0 0 112 111.99"><defs><style>.cls-1{fill:#fff;}</style></defs><g id="Layer_1-2"><path class="cls-1" d="m0,102.81c.1-.38.22-.76.31-1.14.84-3.39,2.71-5.97,5.81-7.68,4.61-2.54,9.43-4.38,14.73-4.8,5.8-.46,11.19,1.01,16.36,3.49.39.19.78.39,1.17.58,6.18,2.94,7.81,7.73,7.38,13.45-.24,3.13-2.58,5.29-5.73,5.29-11.26,0-22.53,0-33.79,0-3.29,0-5.05-1.29-6.05-4.42-.04-.14-.12-.26-.18-.39,0-1.46,0-2.92,0-4.37Z"/><path class="cls-1" d="m57.53,0c1.72.64,3.6,1.04,5.15,1.97,5.43,3.26,7.49,9.98,5.03,15.74-2.45,5.73-8.72,8.87-14.74,7.36-6.15-1.54-10.2-7.24-9.64-13.56.5-5.59,4.9-10.36,10.42-11.3.24-.04.48-.14.72-.21,1.02,0,2.04,0,3.06,0Z"/><path class="cls-1" d="m55.9,50.93c-5.54,0-11.08,0-16.62,0-3.82,0-6.15-2.35-6.22-6.2-.05-2.51.13-5.02,1.52-7.16.93-1.44,2.03-2.96,3.44-3.86,5.68-3.64,11.87-5.88,18.73-5.68,6.36.18,12.15,2.3,17.4,5.76,3.23,2.13,4.57,5.47,4.76,9.27.05.98.04,1.98-.11,2.94-.46,3.03-2.66,4.92-5.72,4.93-5.72.02-11.44,0-17.16,0Z"/><path class="cls-1" d="m89.1,111.99c-5.65,0-11.29,0-16.94,0-3.45,0-5.76-2.19-5.96-5.63-.22-3.77.47-7.25,3.13-10.13,1.62-1.76,3.77-2.71,5.86-3.74,10.92-5.34,21.45-4.15,31.6,2.06,3.34,2.05,4.89,5.31,5.16,9.15.09,1.29.06,2.64-.19,3.91-.54,2.69-2.74,4.37-5.5,4.38-5.72.01-11.44,0-17.16,0Z"/><path class="cls-1" d="m10.2,73.85c-.03-6.96,5.64-12.73,12.56-12.78,7.11-.05,12.86,5.67,12.88,12.81.02,6.89-5.73,12.63-12.69,12.67-6.99.04-12.72-5.67-12.75-12.69Z"/><path class="cls-1" d="m101.79,73.83c-.01,7.02-5.74,12.74-12.73,12.71-6.99-.02-12.72-5.77-12.71-12.76.01-6.98,5.79-12.74,12.75-12.72,7.01.02,12.7,5.75,12.69,12.76Z"/><path class="cls-1" d="m58.56,65.42c0,2.08.03,4.16-.02,6.23-.02.7.22,1.13.76,1.56,3.55,2.8,7.06,5.64,10.6,8.45.88.7,1.51,1.5,1.33,2.69-.32,2.05-2.56,2.83-4.29,1.47-2.98-2.35-5.92-4.73-8.88-7.1q-2.06-1.66-4.1-.02c-2.93,2.35-5.86,4.69-8.8,7.03-1.21.97-2.36,1.05-3.4.29-1.47-1.07-1.37-2.97.23-4.26,3.32-2.67,6.62-5.37,10.01-7.96,1.06-.81,1.5-1.63,1.47-2.98-.09-3.97-.05-7.95-.02-11.92.02-2.16,1.75-3.45,3.54-2.68,1.15.5,1.57,1.46,1.57,2.64,0,2.19,0,4.37,0,6.56Z"/></g></svg>