<?xml version="1.0" encoding="UTF-8"?><svg id="Layer_2" xmlns="http://www.w3.org/2000/svg" viewBox="0 0 101.31 101.38"><defs><style>.cls-1{fill:#fff;}</style></defs><g id="Layer_1-2"><path class="cls-1" d="m35.63,95.38h5.93c0-.46,0-.86,0-1.27,0-16.04,0-32.08,0-48.13,0-3.03.96-4,3.95-4,5.28,0,10.55,0,15.83,0,3.03,0,4,.96,4,3.96,0,16.01,0,32.01,0,48.02,0,.45,0,.9,0,1.41h5.86V30.09c-.83,0-1.69.01-2.55,0-2.83-.04-4.16-2.37-2.68-4.8,4.81-7.9,9.63-15.78,14.48-23.65,1.35-2.2,4.05-2.18,5.42.04,4.82,7.84,9.63,15.7,14.42,23.56,1.51,2.49.2,4.81-2.7,4.85-.8.01-1.61,0-2.5,0v65.35c1.04,0,2.05-.02,3.06,0,1.92.04,3.17,1.2,3.18,2.92.01,1.72-1.25,2.93-3.13,3-.28.01-.56,0-.84,0-31.1,0-62.2,0-93.3,0-.42,0-.85.02-1.26-.03-1.64-.18-2.83-1.5-2.77-3.05.06-1.58,1.28-2.81,2.95-2.84,2.57-.05,5.14-.06,7.7,0,.97.02,1.24-.25,1.24-1.23-.03-10.2-.04-20.4,0-30.61,0-.87.22-1.82.61-2.6.45-.89,1.4-1.22,2.42-1.22,5.88,0,11.75-.01,17.63,0,1.94,0,3.06,1.27,3.06,3.37,0,10.27,0,20.55,0,30.82v1.38Z"/><path class="cls-1" d="m23.79,41.71c-1.46,0-2.68-.95-2.89-2.4-.14-.97-.12-1.96-.1-2.94.02-.64-.14-1.01-.78-1.28-1.53-.63-2.73-1.7-3.66-3.07-1.07-1.57-.86-3.29.53-4.29,1.41-1.02,3.12-.72,4.24.81.64.87,1.38,1.49,2.5,1.54,1.5.07,2.79-.93,3.04-2.36.27-1.54-.55-2.94-2.01-3.38-.43-.13-.9-.17-1.35-.2-4.11-.31-7.51-3.24-8.25-7.1-.78-4.11,1.18-7.96,5.05-9.79.53-.25.72-.55.69-1.12-.04-.98-.04-1.97,0-2.95.08-1.9,1.29-3.13,3.01-3.11,1.68.02,2.83,1.22,2.93,3.08,0,.18.03.36,0,.53-.33,2.11.13,3.68,2.35,4.64.96.42,1.69,1.56,2.34,2.5.87,1.26.48,2.96-.72,3.85-1.26.95-2.94.78-4-.4-.21-.23-.38-.51-.58-.75-.88-1.1-2.26-1.48-3.49-.96-1.25.53-1.98,1.82-1.78,3.15.21,1.4,1.25,2.43,2.7,2.52,2.24.13,4.26.73,6,2.22,4.8,4.09,3.83,11.92-1.88,14.63-.72.34-1.01.7-.96,1.49.05.87.04,1.76-.06,2.63-.16,1.5-1.38,2.53-2.88,2.54Z"/></g></svg>