<?xml version="1.0" encoding="UTF-8"?><svg id="Layer_2" xmlns="http://www.w3.org/2000/svg" viewBox="0 0 111.15 111.15"><defs><style>.cls-1{fill:#fff;}</style></defs><g id="Layer_1-2"><path class="cls-1" d="m80.76,111.15H2.41C.83,110.35,0,109.19,0,107.32.03,72.8.02,38.29.02,3.77.02,1.25,1.28,0,3.84,0,19.9,0,35.96,0,52.02,0c2.54,0,3.79,1.25,3.79,3.8,0,6.55,0,13.1,0,19.64,0,2.78,1.18,3.98,3.94,3.98,6.55,0,13.09,0,19.64,0,2.62,0,3.85,1.23,3.85,3.86,0,6.51.02,13.02-.03,19.54,0,.57-.3,1.27-.7,1.68-4.72,4.79-9.43,9.6-14.26,14.28-5.11,4.96-8.24,10.82-8.85,17.96-.03.32-.19.78-.43.9-2.19,1.13-4.53,1.58-7.02,1.54-.03-.34-.06-.58-.07-.83-.16-3.77-2.2-5.85-5.96-6.08-4.04-.25-7.14,1.72-9.95,4.3-1.36,1.25-1.4,3.28-.21,4.59,1.19,1.31,3.14,1.38,4.6.2.79-.63,1.56-1.3,2.43-1.8.74-.42,1.6-.62,2.53-.96.03.51.04.73.05.94.12,3.68,1.92,5.74,5.58,6.06,4.41.38,8.54-.61,12.34-2.91.42-.25.9-.52,1.37-.56,6.8-.6,12.57-3.35,17.38-8.17.32-.32.66-.63,1.2-1.15,0,.68,0,1.09,0,1.5,0,8.21-.04,16.43.03,24.64.02,2-.62,3.43-2.51,4.2Zm-39.09-62.31c-4.3,0-8.61,0-12.91,0-3.8,0-7.6-.02-11.39,0-2.37.02-3.83,1.95-3.23,4.17.41,1.51,1.66,2.33,3.6,2.33,14.25,0,28.5,0,42.75,0,1.81,0,3.62.02,5.43,0,1.42-.02,2.53-.61,3.1-1.96.98-2.29-.62-4.54-3.25-4.54-8.03-.01-16.06,0-24.09,0Zm-7.14,20.44c1.37,0,2.75,0,4.12,0,4.41,0,8.82,0,13.24,0,1.68,0,2.81-.79,3.26-2.18.73-2.25-.77-4.29-3.27-4.32-3.29-.04-6.58-.01-9.87-.01-7.96,0-15.91,0-23.87,0-.33,0-.65-.01-.98,0-1.83.12-3.25,1.59-3.21,3.32.04,1.77,1.45,3.17,3.32,3.18,5.75.02,11.5,0,17.25.01Zm-10.33-34.37s0-.01,0-.02c-2.24,0-4.48-.02-6.71,0-2.1.02-3.46,1.27-3.5,3.17-.04,1.87,1.33,3.3,3.38,3.32,4.55.05,9.1.03,13.64,0,1.05,0,2-.33,2.67-1.2.79-1.03.91-2.19.43-3.37-.49-1.23-1.46-1.88-2.77-1.9-2.38-.04-4.76-.01-7.15-.01Z"/><path class="cls-1" d="m80.97,20.92c-6.18-6.17-12.42-12.42-18.58-18.58v18.58h18.58Z"/><path class="cls-1" d="m111.15,43.63c-11.2,11.2-22.4,22.39-33.59,33.6-3.15,3.16-6.83,5.26-11.57,6.17.57-1.71.98-3.26,1.59-4.73,1-2.43,2.54-4.53,4.4-6.39,11.05-11.05,22.1-22.09,33.13-33.16.76-.76,1.54-.82,2.46-.59,1.91.48,2.9,1.88,3.58,3.59v1.52Z"/><path class="cls-1" d="m80.97,20.92h-18.58V2.34c6.16,6.16,12.41,12.4,18.58,18.58Z"/></g></svg>