<?xml version="1.0" encoding="UTF-8"?><svg id="Layer_2" xmlns="http://www.w3.org/2000/svg" viewBox="0 0 72.8 127.24"><defs><style>.cls-1{fill:#fff;}</style></defs><g id="Layer_1-2"><path class="cls-1" d="m5.5,127.24c-1.52-.63-3.15-1.17-4.05-2.67-.59-.97-1.25-2.06-1.33-3.14-.19-2.55-.06-5.12-.06-7.76h72.74c-.16,2.96-.08,5.94-.55,8.83-.34,2.13-2.02,3.54-4.1,4.3-.34.12-.67.29-1,.43H5.5Zm30.83-9.15c-.88.06-1.83.04-2.76.19-1.12.19-1.71.97-1.73,2.09-.02,1.12.53,2.05,1.64,2.14,1.88.15,3.78.16,5.66,0,1.13-.09,1.76-1.13,1.67-2.24-.09-1.12-.7-1.86-1.82-2.02-.85-.13-1.72-.12-2.66-.17Z"/><path class="cls-1" d="m.08,18.26v90.77h72.52V18.26H.08Zm23.34,63.93c-.54.79-1.33,1.41-2.35,1.84-1.02.44-2.25.65-3.69.65s-2.67-.22-3.73-.66c-1.06-.44-1.88-1.09-2.47-1.95-.59-.86-.9-1.93-.93-3.2h3.62c.04.59.21,1.09.51,1.48s.71.69,1.22.89c.51.2,1.09.3,1.73.3s1.19-.09,1.65-.28c.47-.18.83-.44,1.09-.77.26-.33.39-.71.39-1.13,0-.4-.12-.73-.35-1-.23-.27-.57-.5-1.02-.69-.45-.19-.99-.36-1.64-.52l-1.93-.48c-1.49-.36-2.67-.93-3.53-1.7s-1.29-1.81-1.29-3.12c0-1.07.28-2.01.86-2.81.58-.8,1.38-1.43,2.39-1.88s2.17-.67,3.46-.67,2.46.23,3.44.67c.98.45,1.75,1.07,2.29,1.88.55.8.83,1.73.85,2.78h-3.59c-.07-.7-.37-1.24-.89-1.62-.52-.39-1.24-.58-2.13-.58-.61,0-1.13.08-1.55.25-.42.17-.74.4-.96.7-.22.3-.33.64-.33,1.02-.01.32.06.59.2.83.15.24.35.44.61.61.26.17.56.32.9.44.34.12.7.23,1.09.32l1.59.38c.77.17,1.48.4,2.13.69.64.29,1.2.64,1.68,1.06s.84.92,1.1,1.49.4,1.22.4,1.96c0,1.08-.28,2.02-.83,2.81Zm22.51,2.24h-3.63v-11.52h-.15l-4.58,11.43h-2.47l-4.58-11.48h-.15v11.56h-3.63v-17.7h4.61l4.87,11.89h.21l4.87-11.89h4.61v17.7Zm15.68-2.24c-.54.79-1.33,1.41-2.35,1.84-1.02.44-2.25.65-3.69.65s-2.67-.22-3.73-.66c-1.06-.44-1.88-1.09-2.47-1.95-.59-.86-.9-1.93-.93-3.2h3.62c.04.59.21,1.09.51,1.48.3.39.71.69,1.22.89.51.2,1.09.3,1.73.3s1.19-.09,1.65-.28c.47-.18.83-.44,1.09-.77.26-.33.39-.71.39-1.13,0-.4-.12-.73-.35-1-.23-.27-.57-.5-1.02-.69-.45-.19-.99-.36-1.64-.52l-1.93-.48c-1.49-.36-2.67-.93-3.53-1.7-.86-.77-1.29-1.81-1.29-3.12,0-1.07.28-2.01.86-2.81.58-.8,1.38-1.43,2.39-1.88,1.01-.45,2.17-.67,3.46-.67s2.46.23,3.44.67c.98.45,1.75,1.07,2.29,1.88.55.8.83,1.73.85,2.78h-3.59c-.07-.7-.37-1.24-.89-1.62-.52-.39-1.24-.58-2.13-.58-.61,0-1.13.08-1.55.25-.42.17-.74.4-.96.7-.22.3-.33.64-.33,1.02-.01.32.06.59.2.83s.35.44.61.61c.26.17.56.32.9.44.34.12.7.23,1.09.32l1.59.38c.77.17,1.48.4,2.13.69.64.29,1.2.64,1.68,1.06.47.42.84.92,1.1,1.49.26.57.4,1.22.4,1.96,0,1.08-.28,2.02-.83,2.81Zm-29.96-35.78c1.47-.89,2.91-1.71,4.28-2.62,1.58-1.05,2.98-2.34,4.15-3.85.11-.14.19-.35.2-.52.04-1.1.71-1.89,1.77-2.03.95-.13,1.85.51,2.12,1.53.47,1.72.92,3.45,1.39,5.18.02.07.05.14.09.26.76-.28,1.49-.22,2.17.23.48.32.8.77.95,1.34.34,1.29-.29,2.26-1.93,2.94.45,1.66.91,3.32,1.33,4.99.12.47.19.99.12,1.46-.13.81-.8,1.39-1.63,1.48-.81.09-1.43-.24-1.91-.91-.15-.2-.36-.41-.59-.5-2.96-1.16-6.05-1.48-9.2-1.34-1.21.06-1.21.09-1.53-1.08-.59-2.21-1.19-4.41-1.76-6.55Zm.36,8.36c-1.51.36-2.96.84-4.45,1.03-2.16.28-4.02-1.24-4.46-3.41-.4-1.99.83-4.08,2.83-4.71,1.27-.4,2.56-.71,3.89-1.07.73,2.71,1.44,5.38,2.19,8.16Zm-2.28,2.46c1.02-.27,1.96-.53,2.95-.79.55,1.33,1.1,2.64,1.62,3.96.15.39-.04.72-.39.92-.4.23-.82.45-1.25.64-.44.2-.9.06-1.08-.37-.62-1.42-1.21-2.86-1.84-4.36Zm22.34-17.98c-.16.29-.23.54-.38.7-.66.69-1.34,1.36-2.02,2.03-.39.38-.92.38-1.26.02-.33-.34-.32-.85.04-1.22.67-.69,1.35-1.36,2.02-2.03.29-.29.65-.4.99-.19.24.15.4.44.61.69Zm2.86,11.07c0,.64-.49,1.05-1.04.92-.97-.24-1.93-.5-2.88-.78-.48-.14-.72-.58-.61-1.02.11-.44.53-.74,1.01-.63,1,.24,1.99.51,2.97.8.37.11.55.4.56.71Zm-2.82-4.42c-.59,0-.93-.26-1.02-.64-.1-.41.07-.86.46-.98,1-.3,2.01-.57,3.03-.81.37-.09.76.23.87.59.12.39-.03.88-.41,1-1.02.33-2.06.59-2.93.84Z"/><path class="cls-1" d="m.06,13.56C.06,10.92-.09,8.35.1,5.8.32,2.82,2.97.42,6.07.06,6.52,0,6.98,0,7.43,0c19.26,0,38.52,0,57.78,0,3.91,0,6.83,2.26,7.35,5.67.08.53.08,1.07.09,1.61,0,2.06,0,4.13,0,6.28H.06ZM29.62,4.53c-2.24,0-4.47-.04-6.71.02-1.49.04-2.47,1-2.48,2.25-.02,1.26.93,2.16,2.44,2.29.29.02.58.01.87.01,3.85,0,7.7,0,11.55,0,.53,0,1.08-.03,1.6-.15,1.16-.27,1.85-1.39,1.64-2.54-.22-1.18-1.15-1.86-2.7-1.88-2.07-.03-4.14,0-6.21,0Zm-18.26,4.62c.84-.05,1.75-.04,2.64-.18,1.11-.17,1.9-1.11,1.83-2.15-.07-1.08-.58-2.03-1.72-2.11-1.84-.14-3.7-.14-5.54-.01-1.09.08-1.82,1.16-1.79,2.19.03,1.05.79,1.94,1.91,2.11.85.12,1.73.11,2.66.16Z"/></g></svg>