<?xml version="1.0" encoding="UTF-8"?><svg id="Layer_2" xmlns="http://www.w3.org/2000/svg" viewBox="0 0 105.26 129.7"><defs><style>.cls-1{fill:#fff;}</style></defs><g id="Layer_1-2"><path class="cls-1" d="m66.38,0c.67.58,1.37,1.12,2,1.74,3.66,3.64,7.3,7.29,10.94,10.95,2.04,2.05,2.04,4.15.01,6.19-3.82,3.84-7.64,7.67-11.48,11.49-1.79,1.79-4.16,1.9-5.74.31-1.55-1.57-1.44-3.88.32-5.64,1.72-1.73,3.48-3.43,5.23-5.14-.19-.18-.25-.29-.31-.29-6.13.04-12.29-.27-18.38.2-15.12,1.17-26.83,8.45-34.64,21.35-8.97,14.82-9.2,30.12-1.08,45.48,1.26,2.38.85,4.61-1.13,5.74-1.86,1.06-4.11.43-5.24-1.53-3.32-5.78-5.67-11.94-6.43-18.56C-1.99,51.15,5.48,34.14,22.5,21.46c8.47-6.31,18.26-9.22,28.81-9.47,4.99-.12,9.98-.03,14.97-.03.41,0,.81,0,1.22,0,.07-.12.14-.24.22-.36-1.58-1.5-3.17-2.98-4.72-4.51C60.27,4.41,60.31,2.55,63.08,0,64.18,0,65.28,0,66.38,0Z"/><path class="cls-1" d="m37.75,109.92c8.46-.37,16.98.71,25.37-1.27,17.54-4.15,31.3-19.1,34-36.96,1.55-10.23-.17-19.85-5.16-28.89-.65-1.17-1.01-2.34-.58-3.63.5-1.5,1.59-2.4,3.15-2.58,1.68-.19,2.97.54,3.8,2,3.2,5.59,5.41,11.56,6.34,17.93,3.49,23.94-8.9,46.62-30.86,56.54-6.64,3-13.66,4.36-20.93,4.41-4.65.04-9.3,0-13.96,0-.4,0-.81.03-1.55.07,1.95,1.92,3.67,3.65,5.41,5.34.93.9,1.49,1.96,1.37,3.27-.14,1.57-.95,2.7-2.43,3.26-1.54.59-2.93.22-4.08-.92-3.24-3.22-6.46-6.46-9.69-9.69-.81-.81-1.63-1.6-2.42-2.43-1.55-1.63-1.57-3.86,0-5.46,3.98-4.03,7.98-8.05,12.01-12.04,1.65-1.64,4.07-1.67,5.56-.14,1.51,1.55,1.43,3.87-.24,5.56-1.74,1.77-3.53,3.5-5.29,5.25.05.11.11.23.16.34Z"/><path class="cls-1" d="m56.43,83.84c0,1.22.02,2.35,0,3.49-.06,2.36-1.68,4.05-3.84,4.04-2.18-.01-3.73-1.69-3.76-4.08-.01-1.13,0-2.26,0-3.53-2.61,0-5.1.03-7.58,0-2.54-.04-4.29-2.23-3.77-4.62.38-1.77,1.92-2.97,3.9-2.97,4.99-.02,9.98,0,14.97-.02,1.69,0,3.09-1.01,3.63-2.49.54-1.48.19-3.2-1.1-4.11-.74-.53-1.75-.91-2.65-.95-2.53-.13-5.07-.01-7.61-.06-5.65-.11-10.46-4.4-11.14-9.9-.71-5.75,2.83-11.04,8.41-12.52.89-.24,1.82-.34,2.94-.54,0-1.05,0-2.17,0-3.29.02-2.49,1.55-4.19,3.78-4.19,2.2,0,3.79,1.72,3.83,4.18.02,1.09,0,2.18,0,3.43,2.58,0,5.06-.04,7.54,0,2.86.05,4.67,2.82,3.51,5.33-.73,1.59-2.05,2.28-3.77,2.27-4.91,0-9.81,0-14.72,0-1.57,0-2.79.65-3.53,2.05-.69,1.3-.61,2.63.19,3.85.78,1.18,1.93,1.72,3.35,1.72,2.33,0,4.65,0,6.98,0,6.59.02,11.55,4.65,11.86,11.05.29,6.1-4.41,11.2-10.87,11.78-.12.01-.24.04-.53.09Z"/></g></svg>