<?xml version="1.0" encoding="UTF-8"?><svg id="Layer_2" xmlns="http://www.w3.org/2000/svg" viewBox="0 0 96.17 121.45"><defs><style>.cls-1{fill:#fff;}</style></defs><g id="Layer_1-2"><path class="cls-1" d="m16.03,13.34c0,1.81-.01,3.59,0,5.37.03,4.46,2.93,7.34,7.4,7.34,11.49,0,22.99,0,34.48,0,4.51,0,7.33-2.82,7.36-7.33.01-1.78,0-3.56,0-5.43.41-.03.75-.08,1.09-.08,2.66,0,5.31-.01,7.97,0,4.11.02,7.02,2.92,7.04,7.05.02,7.41,0,14.82,0,22.23,0,13.24,0,26.47,0,39.71v1.53c-6.25-.36-11.59,1.54-15.89,6.07-2.81,2.97-4.48,6.5-5.01,10.55-1.16,8.83,3.84,17.68,13.52,20.98-.52.06-.79.11-1.06.11-21.96,0-43.91.01-65.87,0-4.24,0-7.06-2.85-7.06-7.11C0,82.99,0,51.64,0,20.29c0-4.24,2.87-7.08,7.09-7.09,2.85,0,5.71,0,8.56.02.07,0,.14.05.37.13Zm34.55,46.68c5.59,0,11.18,0,16.77,0,.36,0,.72.03,1.07-.03,1.03-.17,1.64-.79,1.69-1.84.05-.97-.72-1.76-1.78-1.88-.27-.03-.55-.01-.83-.01-11.22,0-22.43,0-33.65,0-.28,0-.56-.02-.83.01-1.08.11-1.8.85-1.81,1.85,0,.99.71,1.76,1.78,1.88.35.04.71.02,1.07.02,5.51,0,11.02,0,16.53,0Zm.02-18.25c5.55,0,11.09,0,16.64,0,1.97,0,2.87-.59,2.87-1.86,0-1.27-.92-1.87-2.88-1.87-11.06,0-22.11,0-33.17,0-.51,0-1.04,0-1.53.13-.87.23-1.33.87-1.32,1.75,0,.94.53,1.56,1.44,1.79.38.09.79.06,1.18.06,5.59,0,11.17,0,16.76,0Zm.1,36.44c5.51,0,11.02,0,16.52,0,.36,0,.71.01,1.07-.02,1.08-.09,1.81-.83,1.82-1.82,0-.99-.73-1.75-1.8-1.84-.28-.02-.55-.01-.83-.01-11.21,0-22.43,0-33.64,0-.4,0-.8-.03-1.18.05-.92.21-1.44.84-1.45,1.78,0,.93.5,1.58,1.43,1.79.42.09.87.07,1.3.07,5.59,0,11.17,0,16.76,0ZM15.6,58.57c-.46-.53-.77-.96-1.14-1.3-.85-.78-1.93-.78-2.66-.06-.75.74-.77,1.79.01,2.65.69.76,1.44,1.47,2.17,2.19,1.25,1.23,2.1,1.24,3.35.01,1.75-1.72,3.48-3.46,5.2-5.2,1.05-1.06,1.16-2.19.32-3-.83-.8-1.93-.66-3.01.41-1.37,1.37-2.72,2.76-4.24,4.31Zm-.13-18.05c-.41-.59-.66-1.12-1.05-1.49-.86-.81-1.9-.79-2.64-.03-.73.74-.75,1.8.05,2.66.78.84,1.59,1.65,2.43,2.43.93.87,1.92.86,2.84-.03,1.92-1.88,3.82-3.79,5.7-5.71.26-.27.48-.65.56-1.01.19-.86-.12-1.57-.91-2-.84-.46-1.62-.27-2.27.39-1.47,1.48-2.93,2.98-4.71,4.79Zm.1,36.34c-.44-.55-.73-.99-1.1-1.34-.86-.8-1.91-.82-2.66-.1-.79.76-.78,1.84.06,2.74.7.75,1.44,1.47,2.18,2.19,1.14,1.11,2.05,1.13,3.17.03,1.8-1.78,3.59-3.57,5.38-5.37.98-.99,1.07-2.13.27-2.92-.84-.83-1.87-.74-2.91.3-1.4,1.39-2.77,2.81-4.39,4.46Z"/><path class="cls-1" d="m79.48,119.57c-9.26,0-16.68-7.44-16.67-16.7,0-9.25,7.44-16.68,16.69-16.68,9.25,0,16.67,7.44,16.67,16.7,0,9.26-7.43,16.68-16.69,16.67Zm-2.47-15.11c-.69-.77-1.23-1.46-1.85-2.06-.91-.88-1.96-.88-2.73-.09-.74.76-.75,1.8.06,2.66,1.06,1.12,2.15,2.21,3.27,3.27.86.8,1.81.84,2.65.02,2.74-2.68,5.47-5.38,8.11-8.17.4-.42.51-1.43.31-2.02-.16-.49-.97-1.01-1.51-1.04-.56-.03-1.27.4-1.71.83-2.16,2.09-4.25,4.24-6.59,6.6Z"/><path class="cls-1" d="m33.12,10.57c-.88-3.82-.03-6.96,3.16-9.13,2.69-1.83,5.63-1.93,8.41-.23,3.47,2.12,4.46,5.37,3.55,9.36.49,0,.92,0,1.35,0,3.49,0,6.98-.01,10.46,0,1.6,0,2.69.97,2.74,2.52.07,2.14.09,4.28-.01,6.42-.1,2.06-1.61,3.62-3.64,3.97-.58.1-1.18.12-1.77.12-11.14,0-22.27,0-33.41,0-.55,0-1.11-.01-1.66-.1-2.2-.35-3.68-2.02-3.73-4.25-.04-1.98-.03-3.96,0-5.94.03-1.73,1.03-2.71,2.77-2.72,3.88-.02,7.76,0,11.78,0Zm7.55,0c.75,0,1.51-.07,2.25.02.93.11,1.35-.34,1.65-1.13.62-1.66.12-3.59-1.27-4.71-1.4-1.14-3.49-1.23-4.98-.21-1.53,1.05-2.18,2.93-1.64,4.7.28.92.73,1.52,1.85,1.36.7-.1,1.42-.02,2.13-.02Z"/></g></svg>