<?xml version="1.0" encoding="UTF-8"?><svg id="Layer_2" xmlns="http://www.w3.org/2000/svg" viewBox="0 0 101.57 101.47"><defs><style>.cls-1{fill:#fff;}</style></defs><g id="Layer_1-2"><path class="cls-1" d="m75.23,0c0,5.45,0,10.7,0,15.95,0,6.43,3.87,10.28,10.32,10.28,5.17,0,10.34,0,15.51.01.08,0,.15.03.38.09.04.44.11.93.11,1.42,0,21.39.02,42.78,0,64.17,0,5.43-4.1,9.54-9.52,9.54-19.98.02-39.96.02-59.94,0-4.74,0-8.82-3.5-9.28-7.91,12.05,1.59,22.22-1.99,30.08-11.32,5.41-6.42,7.76-13.99,7.21-22.35-1.29-19.48-19.39-32.88-37.54-29.42v-1.28c0-6.35,0-12.69,0-19.04C22.57,3.93,26.46.02,32.7,0c12.14-.02,24.29,0,36.43,0,1.99,0,3.98,0,6.1,0Zm1.79,45.04c3.6,0,7.21,0,10.81,0,1.57,0,2.45-.7,2.43-1.91-.02-1.17-.87-1.85-2.37-1.85-7.21,0-14.42,0-21.63,0-1.47,0-2.33.73-2.31,1.9.02,1.17.87,1.85,2.37,1.85,3.57,0,7.13,0,10.7,0Zm.21,26.33c-3.64,0-7.29,0-10.93,0-1.49,0-2.34.7-2.34,1.88,0,1.18.86,1.88,2.34,1.88,7.21,0,14.42,0,21.63,0,1.48,0,2.34-.71,2.34-1.88,0-1.17-.86-1.88-2.34-1.88-3.57,0-7.13,0-10.7,0Zm1.8-11.28c2.94,0,5.88,0,8.82,0,1.56,0,2.45-.71,2.42-1.92-.02-1.17-.88-1.84-2.38-1.84-5.92,0-11.83,0-17.75,0-1.57,0-2.45.71-2.42,1.92.02,1.17.88,1.84,2.38,1.84,2.98,0,5.96,0,8.93,0Zm-26.28-33.86c-1.8,0-3.6-.01-5.41,0-1.37.01-2.21.76-2.19,1.91.02,1.1.84,1.84,2.14,1.85,3.57.02,7.13.01,10.7,0,1.37,0,2.21-.77,2.19-1.91-.02-1.13-.86-1.84-2.26-1.85-1.72-.01-3.45,0-5.17,0Z"/><path class="cls-1" d="m28.15,90.18C12.57,90.15-.03,77.47,0,61.85c.03-15.46,12.71-28.1,28.16-28.09,15.68.01,28.3,12.65,28.27,28.33-.03,15.51-12.73,28.12-28.28,28.09Zm1.95-33.76c0-1.76,0-3.52,0-5.29,0-1.48-.72-2.34-1.89-2.33-1.17.01-1.86.86-1.86,2.35,0,3.05.02,6.11-.03,9.16,0,.48-.25,1.06-.57,1.41-1.39,1.49-2.86,2.9-4.28,4.36-.94.97-1,1.98-.22,2.79.82.85,1.87.8,2.88-.18,1.73-1.7,3.49-3.38,5.12-5.17.47-.52.77-1.35.83-2.07.12-1.68.04-3.36.04-5.05Z"/><path class="cls-1" d="m79,1.8c6.9,6.9,13.8,13.8,20.68,20.67-.11,0-.41,0-.7,0-4.66,0-9.33,0-13.99,0-3.6,0-5.97-2.37-5.98-5.96-.01-4.66,0-9.33,0-13.99v-.73Z"/></g></svg>