<?xml version="1.0" encoding="UTF-8"?><svg id="Layer_2" xmlns="http://www.w3.org/2000/svg" viewBox="0 0 113.24 101.67"><defs><style>.cls-1{fill:#fff;}</style></defs><g id="Layer_1-2"><path class="cls-1" d="m55.73,101.37c-4.71.56-9.27.31-13.78-.53C21.04,96.97,5.09,81.21.95,60.4-3.77,36.71,9.56,12.37,32.06,3.6c27.62-10.77,57.99,3.49,67.17,31.67,3.8,11.67,3.23,23.28-1.28,34.7-.36.9-.84,1.15-1.76,1.14-5.91-.04-11.84-.27-17.73.08-3.02.18-5.92-.52-8.91-.3-9.22.67-16.93,8.51-17.36,17.78-.2,4.36.74,8.4,3.19,12.06.12.17.2.36.35.64Zm-8.53-39.73c2.62-.09,4.52-1.22,5.92-3.11,5.54-7.46,11.06-14.95,16.53-22.47.45-.61.7-1.58.61-2.33-.29-2.33-2.78-3.07-4.89-1.52-7.28,5.35-14.55,10.71-21.81,16.08-.53.39-1.04.83-1.48,1.31-2,2.18-2.63,4.68-1.39,7.43,1.28,2.86,3.57,4.38,6.51,4.6Z"/><path class="cls-1" d="m70.95,79.35c5.74,0,10.33,4.76,10.31,10.7-.02,5.92-4.64,10.63-10.41,10.6-5.7-.03-10.21-4.73-10.21-10.64,0-6.01,4.5-10.66,10.3-10.66Zm6.49,10.72c.03-3.81-2.77-6.86-6.35-6.92-3.76-.06-6.7,2.95-6.71,6.84,0,3.84,2.9,6.87,6.57,6.86,3.63-.02,6.46-2.97,6.49-6.78Z"/><path class="cls-1" d="m95.59,91.85h-6.68v8.44h-3.76v-20.6h12.28v3.31h-8.43v5.38h6.59v3.47Z"/><path class="cls-1" d="m100.98,79.67h12.26v3.3h-8.56v5.43h6.7v3.41h-6.76v8.48h-3.65v-20.63Z"/></g></svg>