<?xml version="1.0" encoding="UTF-8"?><svg id="Layer_2" xmlns="http://www.w3.org/2000/svg" viewBox="0 0 87.38 87.35"><defs><style>.cls-1{fill:#fff;}</style></defs><g id="Layer_1-2"><path class="cls-1" d="m0,6.15c.41-1.74,1.11-3.31,2.54-4.5C3.9.54,5.45.02,7.18.02c5.23-.02,10.46-.03,15.69,0,4.06.03,7.02,2.86,7.15,6.92.17,5.31.89,10.51,2.49,15.59.82,2.61.21,4.92-1.52,7.07-2.43,3.04-4.72,6.19-7.04,9.32-.16.21-.14.7-.01.96,5.16,9.86,12.58,17.51,22.33,22.91,1.36.75,2.18.72,3.37-.24,2.84-2.31,5.79-4.49,8.73-6.68,1.74-1.29,3.73-1.62,5.83-1.14,2.65.61,5.27,1.44,7.95,1.88,2.63.43,5.31.56,7.97.7,3.5.18,6.05,2.02,6.94,5.24.21.75.27,1.57.27,2.36.02,4.95-.05,9.89.03,14.84.06,4.03-2.57,7.01-6.02,7.51-.05,0-.09.06-.14.09h-4.09c-.28-.04-.56-.09-.84-.12-3.22-.36-6.45-.58-9.64-1.1-10.09-1.66-19.48-5.25-28.19-10.6-10.78-6.63-19.55-15.32-26.27-26.05C5.75,39.18,1.87,27.99.51,15.92c-.21-1.89-.34-3.78-.51-5.68v-4.09Z"/></g></svg>