<?xml version="1.0" encoding="UTF-8"?><svg id="Layer_2" xmlns="http://www.w3.org/2000/svg" viewBox="0 0 113.52 94.43"><defs><style>.cls-1{fill:#fff;}</style></defs><g id="Layer_1-2"><path class="cls-1" d="m66.02,27.85H31.04c.8-2.73,1.49-5.39,2.35-8,1.54-4.66,3.61-9.07,6.77-12.89,1.34-1.62,2.87-3.03,4.76-4.02,2.57-1.34,5.11-1.26,7.62.14,2.5,1.4,4.36,3.48,5.95,5.81,3.56,5.19,5.59,11.02,7.09,17.06.15.59.27,1.18.43,1.89Z"/><path class="cls-1" d="m23.48,34.45c-1.06,8.59-1.07,17.13.01,25.83h-1c-6.57,0-13.15,0-19.72.01-.7,0-1.04-.13-1.24-.91-2.03-8.07-2.05-16.13.04-24.19.13-.49.21-.84.87-.84,6.88.03,13.76.02,20.63.02.1,0,.19.03.41.08Z"/><path class="cls-1" d="m72.71,27.84c-2.29-10.23-5.45-20.03-13.17-27.7,11.52.77,30.53,16.53,33.39,27.7h-20.22Z"/><path class="cls-1" d="m24.47,27.85H4.12c3.23-7.27,7.87-13.33,13.97-18.27C23.85,4.93,30.34,1.76,37.8,0c-7.87,7.82-11.03,17.6-13.33,27.85Z"/><path class="cls-1" d="m4.13,66.79h20.35c2.28,10.22,5.44,20,13.1,27.62-3.21.34-14.41-5.11-19.9-9.7-5.86-4.9-10.38-10.81-13.54-17.92Z"/><path class="cls-1" d="m108.45,28.9c.15.07.28.16.44.21,4.51,1.38,6.08,6.34,3.12,10.03-2.91,3.63-5.87,7.22-8.82,10.82-3.07,3.76-6.14,7.52-9.21,11.28-.19.23-.4.45-.53.6-4.28-4.28-8.55-8.54-12.88-12.88.47-.4,1.05-.89,1.64-1.37,6.94-5.67,13.87-11.37,20.86-17,.92-.74,2.1-1.14,3.16-1.7.74,0,1.48,0,2.23,0Z"/><path class="cls-1" d="m48.03,90c1.81-2.52,2.13-5.57,2.2-8.48,0-.38.01-.76.02-1.14.02-1.51.04-3.06.34-4.64.76-3.97,3.23-7.17,6.68-8.93h-26.12c1.54,6.72,3.6,13.13,7.46,18.83,1.47,2.16,3.17,4.11,5.39,5.54,1.17.75,2.36,1.24,3.55,1.43-.08-.41-.22-1.63.48-2.61Z"/><path class="cls-1" d="m61.84,89.85c-2,.24-4.04.3-5.98.78-1.6.39-3.05,1.33-4.6,1.94-.42.17-1.07.21-1.42,0-.22-.14-.27-1-.05-1.3,2.09-2.91,2.52-6.24,2.61-9.69.05-1.81-.02-3.66.32-5.43.9-4.68,4.56-7.96,9.28-8.56,4.85-.62,9.51,1.91,11.71,6.23,3.17,6.24-.02,15.69-9.42,16.18-.81.04-1.62,0-2.42,0,0-.05-.02-.11-.02-.16Z"/><path class="cls-1" d="m67.5,57.32c.8-7.67.69-15.27-.34-22.88H30.03c-1.17,8.88-1.17,17.48,0,25.74h35.82c.43-1.09.99-2.03,1.64-2.87Z"/><path class="cls-1" d="m92.21,66.79l.13.13-1.43,1.53c-.61.65-1.19,1.4-1.8,2.19-1.89,2.43-4.04,5.19-7.95,6.31l-2.08.59-.59-2.08c-.86-3.03-2.25-5.5-4.17-7.41-.16.69-.32,1.38-.49,2.07.7.82,1.31,1.73,1.82,2.73,2.02,3.97,1.86,9.05-.4,12.96-2.23,3.86-6.08,6.12-10.84,6.37-.26.01-.53.02-.84.02-.65.76-1.34,1.51-2.07,2.23,3.21.34,14.41-5.11,19.9-9.7,5.86-4.9,10.38-10.81,13.54-17.92h-2.74Z"/><path class="cls-1" d="m67.58,61.85c1.23-4.35,5.1-6.15,7.88-8.76,4.63,4.63,9.21,9.21,13.88,13.88-2.58,2.77-4.39,6.64-8.77,7.89-1.91-6.7-6.21-11.07-12.99-13.01Z"/><path class="cls-1" d="m77.38,48.83c.6-.51,1.2-1.01,1.81-1.52l.45-.38c.38-.32.79-.67,1.21-1.01,1.52-1.24,3.03-2.48,4.55-3.72,3.14-2.57,6.34-5.19,9.55-7.8-.14-.03-.31-.05-.51-.05-6.57.03-13.15.01-19.72.01h-1.02c.7,5.62.94,11.18.74,16.71.39-.28.78-.57,1.17-.85.59-.47,1.18-.93,1.77-1.4Z"/></g></svg>