<?xml version="1.0" encoding="UTF-8"?><svg id="Layer_2" xmlns="http://www.w3.org/2000/svg" viewBox="0 0 118.15 106.54"><defs><style>.cls-1{fill:none;stroke:#137ee8;stroke-miterlimit:10;stroke-width:2px;}.cls-2{fill:#137ee8;}</style></defs><g id="Layer_1-2"><path class="cls-1" d="m36.84,59.25c-.12-.17-.21-.32-.31-.46-1.03-1.54-1.33-3.24-.98-5.03.52-2.62,2.19-4.26,4.64-5.16.34-.12.44-.24.38-.59-.57-3.58,1.13-6.48,4.52-7.71.34-.12.42-.32.47-.6.84-4.27,5.33-5.95,8.89-3.9,2.06,1.18,2.78,3.13,2.78,5.39,0,.28,0,4.99,0,5.27h3.34v-5.23c0-.21,0-.43.02-.64.13-3.12,2.37-5.42,5.49-5.64,3.03-.22,5.54,1.7,6.15,4.72.08.38.25.55.6.68,2.97,1.09,4.63,3.57,4.51,6.73-.02.46-.09.91-.13,1.36,4.99,1.46,6.68,7.01,3.79,10.81,6.51,3.28,6.36,12.73-.64,15.47,1.65,4.66-2.5,9.84-8.01,8.73-.04.19-.08.37-.13.56-.58,2.34-1.97,3.93-4.35,4.45-2.27.5-4.31-.07-5.89-1.84-1.05-1.17-1.41-2.63-1.41-4.19,0-.3,0-5.12,0-5.42h-3.34c0,.27,0,5.06,0,5.34,0,.51-.04,1.03-.13,1.53-.48,2.72-2.67,4.6-5.5,4.74-2.77.14-5.15-1.54-5.9-4.17-.1-.34-.17-.68-.25-1.02-2.58.47-4.81-.13-6.56-2.06-1.74-1.92-2.21-4.17-1.44-6.66-7.04-2.77-7.14-12.16-.62-15.45Z"/><rect class="cls-2" x="47.82" y="92.73" width="21.74" height="4.39" rx="2.19" ry="2.19"/><rect class="cls-2" x="49.21" y="98.32" width="18.98" height="3.83" rx="1.91" ry="1.91"/><rect class="cls-2" x="50.64" y="103.3" width="16.1" height="3.25" rx="1.62" ry="1.62"/><g id="_Radial_Repeat_"><rect class="cls-2" x="11.5" y="91.9" width="18.87" height="2.56" rx="1.15" ry="1.15" transform="translate(-56.06 36.67) rotate(-41.06)"/></g><g id="_Radial_Repeat_-2"><rect class="cls-2" x=".87" y="72.07" width="18.87" height="2.56" rx="1.15" ry="1.15" transform="translate(-19.04 5.34) rotate(-15.34)"/></g><g id="_Radial_Repeat_-3"><rect class="cls-2" x="8.04" y="41.42" width="2.56" height="18.87" rx="1.15" ry="1.15" transform="translate(-42.38 50.87) rotate(-79.63)"/></g><g id="_Radial_Repeat_-4"><rect class="cls-2" x="16.92" y="20.74" width="2.56" height="18.87" rx="1.15" ry="1.15" transform="translate(-16.9 27.11) rotate(-53.92)"/></g><g id="_Radial_Repeat_-5"><rect class="cls-2" x="33.89" y="5.95" width="2.56" height="18.87" rx="1.15" ry="1.15" transform="translate(-3.1 18.45) rotate(-28.2)"/></g><g id="_Radial_Repeat_-6"><rect class="cls-2" x="55.6" y="0" width="2.56" height="18.87" rx="1.15" ry="1.15" transform="translate(-.36 2.48) rotate(-2.49)"/></g><g id="_Radial_Repeat_-7"><rect class="cls-2" x="69.59" y="12.2" width="18.87" height="2.56" rx="1.15" ry="1.15" transform="translate(35.47 80.78) rotate(-66.77)"/></g><g id="_Radial_Repeat_-8"><rect class="cls-2" x="87.78" y="25.46" width="18.87" height="2.56" rx="1.15" ry="1.15" transform="translate(6.35 70.43) rotate(-41.06)"/></g><g id="_Radial_Repeat_-9"><rect class="cls-2" x="98.41" y="45.3" width="18.87" height="2.56" rx="1.15" ry="1.15" transform="translate(-8.48 30.2) rotate(-15.34)"/></g><g id="_Radial_Repeat_-10"><rect class="cls-2" x="107.55" y="59.63" width="2.56" height="18.87" rx="1.15" ry="1.15" transform="translate(21.3 163.68) rotate(-79.63)"/></g><g id="_Radial_Repeat_-11"><rect class="cls-2" x="98.67" y="80.32" width="2.56" height="18.87" rx="1.15" ry="1.15" transform="translate(-31.45 117.66) rotate(-53.92)"/></g></g></svg>